<?xml version="1.0" encoding="UTF-8" standalone="no"?>
<!-- Created with Inkscape (http://www.inkscape.org/) -->

<svg
   width="4.2333336mm"
   height="4.2333336mm"
   viewBox="0 0 4.2333336 4.2333336"
   version="1.1"
   id="svg5"
   inkscape:version="1.1.1 (3bf5ae0d25, 2021-09-20)"
   sodipodi:docname="fps-converter-icon.svg"
   xmlns:inkscape="http://www.inkscape.org/namespaces/inkscape"
   xmlns:sodipodi="http://sodipodi.sourceforge.net/DTD/sodipodi-0.dtd"
   xmlns="http://www.w3.org/2000/svg"
   xmlns:svg="http://www.w3.org/2000/svg">
  <sodipodi:namedview
     id="namedview7"
     pagecolor="#ffffff"
     bordercolor="#666666"
     borderopacity="1.0"
     inkscape:pageshadow="2"
     inkscape:pageopacity="0.0"
     inkscape:pagecheckerboard="0"
     inkscape:document-units="mm"
     showgrid="false"
     fit-margin-top="0"
     fit-margin-left="0"
     fit-margin-right="0"
     fit-margin-bottom="0"
     inkscape:zoom="1"
     inkscape:cx="11.5"
     inkscape:cy="-131.5"
     inkscape:window-width="1920"
     inkscape:window-height="1017"
     inkscape:window-x="-8"
     inkscape:window-y="-8"
     inkscape:window-maximized="1"
     inkscape:current-layer="layer1" />
  <defs
     id="defs2">
    <clipPath
       clipPathUnits="userSpaceOnUse"
       id="clipPath1122">
      <rect
         style="opacity:0.8;fill:#4d4d4d;stroke-width:1.5875;-inkscape-stroke:none;stop-color:#000000"
         id="rect1124"
         width="36.677708"
         height="36.677708"
         x="-56.276558"
         y="144.75797" />
    </clipPath>
    <clipPath
       clipPathUnits="userSpaceOnUse"
       id="clipPath1350">
      <rect
         style="opacity:0.8;fill:#4d4d4d;stroke-width:1.5875;-inkscape-stroke:none;stop-color:#000000"
         id="rect1352"
         width="36.678001"
         height="36.678001"
         x="-55.978149"
         y="145.05617" />
    </clipPath>
  </defs>
  <g
     inkscape:label="Layer 1"
     inkscape:groupmode="layer"
     id="layer1"
     transform="translate(-94.758305,-183.07575)">
    <g
       id="g1162"
       transform="matrix(0.11541887,0,0,0.11541887,101.21924,166.33353)"
       clip-path="url(#clipPath1350)"
       style="stroke-width:8.66408">
      <path
         style="fill:#e7e3e0;stroke-width:8.66408"
         d="m -83.175377,161.91868 v -30.03021 h 38.893749 38.893749 v 30.03021 30.03021 h -38.893749 -38.893749 z"
         id="path1226" />
      <path
         style="fill:#e5e1de;stroke-width:8.66408"
         d="m -83.175377,161.91868 v -30.03021 h 38.893749 38.893749 v 24.60625 24.60625 h -0.8754718 c -0.4815099,0 -1.106588,0.17481 -1.3890625,0.38846 -0.3786399,0.28639 -1.2907433,0.39067 -3.4712537,0.39688 -2.327841,0.007 -3.046201,0.0969 -3.373438,0.42418 -0.705585,0.70559 -0.54108,1.18582 0.744387,2.17304 0.706488,0.54257 1.046107,0.58619 4.5640625,0.58619 h 3.8007765 v 3.43958 3.43959 h -38.893749 -38.893749 z m 51.858332,23.68021 c 0.486219,-0.48622 0.881944,-0.52917 4.875892,-0.52917 4.999826,0 5.178274,-0.0693 5.178274,-2.01209 0,-0.99426 -0.144737,-1.32529 -0.917223,-2.09777 -0.50447,-0.50447 -1.031748,-0.91722 -1.171725,-0.91722 -0.433875,0 -1.086052,0.80576 -1.086052,1.34181 0,0.60142 -0.741846,0.68881 -0.962652,0.1134 -0.199723,-0.52047 -1.940427,-0.52605 -2.624798,-0.008 -0.357413,0.27033 -1.211009,0.39102 -2.807055,0.39688 -3.171902,0.0116 -3.130494,-0.0166 -3.130494,2.13134 0,1.19382 0.111588,1.84675 0.330729,1.93518 0.754404,0.3044 1.819608,0.14155 2.315104,-0.35394 z m 15.191901,0.36856 c 0.529923,-0.20335 0.542777,-0.79343 0.02164,-0.99341 -0.303699,-0.11654 -0.396875,-0.61568 -0.396875,-2.12608 0,-1.44156 -0.112109,-2.08588 -0.415774,-2.38955 -0.664988,-0.66499 -1.790936,-0.50757 -2.719986,0.38028 -0.737698,0.70498 -0.83299,0.96328 -0.83299,2.25787 0,1.27913 0.100343,1.55992 0.802873,2.24666 0.643048,0.6286 1.033759,0.78483 1.962735,0.78483 0.637923,0 1.348194,-0.0723 1.578377,-0.1606 z m -30.547042,-5.11367 c 0.418357,-0.78171 0.340707,-0.98385 -0.513921,-1.33785 -0.499962,-0.20709 -1.152509,-0.25343 -1.785938,-0.12683 -0.548968,0.10972 -1.98039,0.19154 -3.180937,0.18183 -1.955218,-0.0158 -2.182812,0.0335 -2.182812,0.4727 0,1.11485 0.643913,1.32192 4.11063,1.32192 2.971146,0 3.304807,-0.0481 3.552978,-0.51177 z"
         id="path1224" />
      <path
         style="fill:#e1dddb;stroke-width:8.66408"
         d="m -83.175377,191.40082 c 0,-1.02754 0.613064,-1.30402 2.891518,-1.30402 1.247321,0 2.135565,-0.11004 2.135565,-0.26458 0,-0.14552 -0.416719,-0.26458 -0.926041,-0.26458 h -0.926042 v -1.5792 c 0,-1.29503 0.07142,-1.55179 0.396875,-1.4269 0.218281,0.0838 0.396875,0.25862 0.396875,0.38857 0,0.12995 0.885942,0.23628 1.96876,0.23628 1.082818,0 2.042345,0.11906 2.132281,0.26458 0.0954,0.15436 -0.173641,0.26458 -0.645843,0.26458 -0.445151,0 -0.809365,0.11907 -0.809365,0.26459 0,0.14552 0.416719,0.26458 0.926042,0.26458 0.881944,0 0.926041,0.0441 0.926041,0.92604 0,0.50932 0.119063,0.92604 0.264584,0.92604 0.145521,0 0.264583,-0.57292 0.264583,-1.27316 0,-1.10395 0.104069,-1.3501 0.783036,-1.85208 0.430671,-0.31841 1.145046,-0.57892 1.5875,-0.57892 0.739053,0 0.804464,0.0734 0.804464,0.90279 v 0.9028 l 4.193296,0.0894 c 4.450681,0.0949 4.875055,0.21123 5.352718,1.46758 0.226999,0.59705 0.294356,0.60619 4.470354,0.60619 3.495545,0 4.239882,0.0663 4.239882,0.37747 0,0.20761 0.208359,0.43193 0.46302,0.49848 0.273114,0.0714 0.137467,0.14121 -0.330729,0.17028 -0.691483,0.0429 -0.725572,0.0786 -0.264583,0.27668 0.303747,0.13053 -6.036183,0.23532 -14.882812,0.24599 l -15.411979,0.0186 z m 0.330729,-10.9602 c -0.259411,-0.29464 -0.330729,-5.57003 -0.330729,-24.4639 v -24.08825 h 38.893749 38.893749 v 22.225 c 0,14.64028 -0.090294,22.225 -0.2645833,22.225 -0.1455209,0 -0.2645834,0.12609 -0.2645834,0.2802 0,0.15411 0.1190625,0.20661 0.2645834,0.11668 0.1455208,-0.0899 0.2645172,0.0519 0.2644378,0.31511 -1.244e-4,0.40469 -0.2249408,0.47744 -1.4552083,0.4709 -0.8002852,-0.004 -1.4550628,0.0553 -1.4550628,0.13229 0,0.25127 -1.3771245,0.33075 -6.3754294,0.36797 -3.719361,0.0277 -5.026196,0.12459 -5.354441,0.39697 -0.263438,0.21861 -0.617662,0.28014 -0.900615,0.15643 -0.256514,-0.11214 -0.570587,-0.18002 -0.697942,-0.15085 -0.127355,0.0292 -0.455102,-0.14926 -0.728329,-0.39653 -0.424238,-0.38394 -0.646028,-0.40486 -1.518936,-0.14333 -0.562187,0.16843 -1.32874,0.30624 -1.703451,0.30624 -0.374711,0 -0.754877,0.11907 -0.844814,0.26459 -0.237535,0.38434 -0.988643,0.32479 -1.949532,-0.15457 -0.912191,-0.45506 -2.191523,-0.35248 -4.128929,0.33108 -0.694542,0.24505 -1.089877,0.27889 -1.150025,0.0984 -0.138276,-0.41483 -1.305205,-0.32993 -2.03468,0.14804 -0.560448,0.36722 -0.819933,0.37833 -1.967561,0.0842 -1.031644,-0.2644 -1.679987,-0.27223 -2.952152,-0.0357 -1.046482,0.19461 -1.797259,0.21375 -2.096809,0.0534 -0.265155,-0.14191 -4.619525,-0.26174 -10.085136,-0.27756 -11.108369,-0.0321 -10.353397,-0.0511 -10.163811,0.25564 0.08446,0.13665 -0.654475,0.1932 -1.730667,0.13245 -2.248871,-0.12695 -6.2386,0.28799 -6.735683,0.70053 -0.26288,0.21817 -0.601909,0.20585 -1.302075,-0.0473 -0.833516,-0.3014 -1.057919,-0.28239 -1.877662,0.15907 -0.792098,0.42657 -1.060209,0.45467 -1.796928,0.18826 -1.258635,-0.45512 -4.135641,-0.41655 -4.135641,0.0555 0,0.72296 -1.742596,0.94425 -2.315104,0.294 z"
         id="path1222" />
      <path
         style="fill:#dbd8d7;stroke-width:8.66408"
         d="m -43.091003,178.20124 c -0.291042,-0.11918 -0.852376,-0.15631 -1.247413,-0.0825 -1.205928,0.22533 -2.589045,-0.1496 -2.589045,-0.70184 0,-0.28049 -0.306867,-0.61084 -0.727604,-0.78327 -0.82567,-0.33839 -7.949859,-1.09295 -8.462336,-0.8963 -0.304278,0.11677 -0.436824,0.62166 -0.268914,1.02435 0.03638,0.0872 1.692838,0.14129 3.681021,0.1201 3.644542,-0.0388 4.563972,0.18645 3.150404,0.77197 -0.577072,0.23903 -3.526909,0.28194 -11.836741,0.17215 -6.087467,-0.0804 -13.271481,-0.14293 -15.964475,-0.1389 -2.692995,0.004 -5.104011,-0.0724 -5.357813,-0.16974 -0.377132,-0.14472 -0.461458,-0.51036 -0.461458,-2.00086 0,-1.03946 0.113784,-1.82377 0.264583,-1.82377 0.145521,0 0.264584,-0.1786 0.264584,-0.39688 0,-0.30467 0.338078,-0.39687 1.455208,-0.39687 h 1.455208 v -0.92604 -0.92605 h 1.455209 1.455208 v 0.89297 c 0,0.78709 0.09734,0.91244 0.820924,1.05716 0.451508,0.0903 0.935261,0.0935 1.075006,0.007 0.139744,-0.0864 0.454938,0.0181 0.700429,0.23225 0.245492,0.2141 0.866813,0.46441 1.380712,0.55623 0.5139,0.0918 1.125432,0.39009 1.35896,0.66283 0.402047,0.46956 0.518708,0.47478 2.196746,0.0984 1.426758,-0.32006 1.890735,-0.33408 2.380595,-0.0719 0.486474,0.26035 0.804173,0.25485 1.58482,-0.0274 0.903014,-0.32653 1.009695,-0.3111 1.419821,0.20537 0.243894,0.30714 0.707244,0.69343 1.029665,0.85843 0.518496,0.26533 0.632509,0.21048 0.986889,-0.47482 0.299526,-0.57922 0.536628,-0.73925 0.939257,-0.63396 0.714862,0.18694 0.908686,0.54713 0.536037,0.99615 -0.400957,0.48312 0.401454,0.9329 1.664306,0.9329 0.949509,0 1.964258,-0.76976 1.306562,-0.99112 -0.537593,-0.18093 -0.380907,-0.55725 0.396874,-0.95317 0.432417,-0.22012 2.069368,-0.44324 4.034896,-0.54996 5.346655,-0.29031 5.252421,-0.24734 5.692976,-2.59572 l 0.171305,-0.91312 -2.442136,-0.17335 c -1.684581,-0.11958 -2.555703,-0.0791 -2.808245,0.13049 -0.275611,0.22874 -0.616874,0.22871 -1.380596,-1e-4 -0.557969,-0.16716 -1.678257,-0.30394 -2.489531,-0.30394 -0.811274,0 -1.548627,-0.11906 -1.638564,-0.26458 -0.08994,-0.14552 -0.68525,-0.26459 -1.322917,-0.26459 -0.637667,0 -1.23298,0.11907 -1.322917,0.26459 -0.209828,0.3395 -1.912038,0.34659 -2.028472,0.008 -0.127022,-0.3689 -9.687457,-0.40032 -10.622606,-0.0349 -1.043212,0.40763 -2.862041,0.3478 -3.472928,-0.11425 -0.661423,-0.50028 -1.206201,-0.49647 -1.206201,0.008 0,0.55978 -4.356047,0.57654 -4.913691,0.0189 -0.320438,-0.32044 -0.377976,-3.22035 -0.377976,-19.05 v -18.67202 h 38.893749 38.893749 l 1.984e-4,19.51302 1.958e-4,19.51302 -3.9027998,-0.0787 c -2.1465404,-0.0433 -4.2004584,-0.16802 -4.5642604,-0.27722 -0.363803,-0.1092 -2.387865,-0.1595 -4.497917,-0.11177 -2.110052,0.0477 -4.372239,0.0839 -5.027083,0.0804 -0.654844,-0.003 -2.27802,0.0625 -3.607062,0.14667 l -2.416437,0.15299 0.386046,1.49898 c 0.212325,0.82445 0.55558,1.76269 0.762791,2.08499 0.484767,0.75403 0.478025,1.13379 -0.02013,1.13379 -0.218281,0 -0.396875,0.12133 -0.396875,0.26962 0,0.14968 0.27228,0.20129 0.612042,0.11602 0.394118,-0.0989 0.836374,0.028 1.242089,0.35657 l 0.63005,0.51018 -1.440527,0.0147 c -0.792292,0.008 -1.797717,0.15526 -2.234279,0.32708 -0.456139,0.17953 -2.875687,0.36792 -5.688542,0.44292 -3.335379,0.0889 -5.179036,0.24884 -5.786998,0.50193 -1.001038,0.41673 -1.019918,0.41799 -1.753626,0.11753 z m 6.246706,-25.75211 c -0.141906,-0.1419 -0.458017,-0.18126 -0.702471,-0.0874 -0.362611,0.13914 -0.383783,0.24366 -0.114972,0.56756 0.255733,0.30814 0.41298,0.32771 0.702471,0.0875 0.242324,-0.20111 0.282599,-0.39994 0.114972,-0.56757 z m 17.168918,23.36017 c 0,-0.14552 0.178594,-0.26458 0.396875,-0.26458 0.218282,0 0.396875,0.11906 0.396875,0.26458 0,0.14552 -0.178593,0.26459 -0.396875,0.26459 -0.218281,0 -0.396875,-0.11907 -0.396875,-0.26459 z m 9.112774,-0.554 c -0.08149,-0.13186 -0.05185,-0.24137 0.06588,-0.24336 0.117729,-0.002 0.5005628,-0.0803 0.8507388,-0.17397 0.4089374,-0.10942 0.5760403,-0.0722 0.4671457,0.10397 -0.2370561,0.38356 -1.2049205,0.60274 -1.3837645,0.31336 z"
         id="path1220" />
      <path
         style="fill:#d0cecd;stroke-width:8.66408"
         d="m -45.736836,176.08822 c -4.607838,-0.32827 -6.427086,-0.57709 -6.935036,-0.94851 -0.729594,-0.53349 -0.259969,-0.73825 2.380882,-1.03806 l 2.437487,-0.27672 0.602284,-2.11667 c 0.331256,-1.16416 0.673897,-2.56315 0.761421,-3.10885 l 0.159136,-0.99219 -4.068712,-0.0662 c -2.237793,-0.0364 -5.795118,-0.071 -7.90517,-0.0769 -2.110052,-0.006 -8.569193,-0.11232 -14.353646,-0.23651 l -10.517187,-0.2258 V 149.4451 131.88838 h 38.893749 38.893749 v 18.39938 18.39938 L -10.6134,168.5434 c -2.874036,-0.0791 -8.421385,-0.17324 -12.327442,-0.20928 l -7.101922,-0.0655 0.158824,1.19062 c 0.08735,0.65485 0.395044,1.96453 0.683755,2.91042 1.135859,3.72133 1.116118,3.73186 -7.203832,3.84133 -3.532322,0.0465 -7.73209,-0.009 -9.332819,-0.12283 z m 9.524999,-22.87558 c 0,-0.92203 -0.599453,-1.35517 -1.546547,-1.11747 -0.902917,0.22662 -0.893517,0.77226 0.02519,1.46247 0.973889,0.73167 1.521354,0.60752 1.521354,-0.345 z"
         id="path1218" />
      <path
         style="fill:#c8c5c6;stroke-width:8.66408"
         d="m -43.223295,176.04184 c -7.237952,-0.31006 -10.773388,-1.23797 -6.471882,-1.69862 1.191961,-0.12765 1.792581,-0.31793 1.944634,-0.61608 0.409554,-0.80304 1.928286,-6.87176 1.837576,-7.34278 -0.08429,-0.4377 -0.888484,-0.47391 -12.524681,-0.56391 -6.839032,-0.0529 -13.268042,-0.131 -14.286688,-0.17357 -1.018645,-0.0426 -3.786848,-0.0952 -6.151562,-0.11686 l -4.299479,-0.0395 v -16.80104 -16.80104 h 38.893749 38.893749 l -1.429e-4,16.99948 -1.428e-4,16.99948 h -7.7389193 c -6.643976,0 -10.3203,0.10324 -16.337878,0.45881 -1.148048,0.0678 -1.18736,0.0981 -1.099298,0.84562 0.05023,0.42639 0.323315,1.61702 0.606856,2.64583 0.910156,3.30245 1.164651,5.08358 0.790739,5.53411 -0.555271,0.66906 -6.956441,0.97419 -14.05663,0.67004 z m 7.209094,-21.99452 c 0.598766,-0.45939 0.306335,-1.74848 -0.477684,-2.1057 -0.756893,-0.34487 -1.937284,-0.0705 -2.1567,0.50128 -0.108863,0.28369 0.121816,0.68672 0.67696,1.18274 0.9305,0.8314 1.315344,0.91431 1.957424,0.42168 z"
         id="path1216" />
      <path
         style="fill:#cec4b9;stroke-width:8.66408"
         d="m -45.604545,175.89904 c -1.390999,-0.13543 -4.04813,-0.66832 -4.494178,-0.90131 -0.290531,-0.15176 -0.186952,-0.25006 0.396875,-0.37666 2.075371,-0.45002 2.153029,-0.59556 3.729871,-6.98994 0.575472,-2.33364 0.658659,-3.01329 0.400336,-3.27077 -0.247989,-0.24718 -3.633459,-0.3384 -14.136263,-0.38092 -22.017331,-0.0891 -23.141434,-0.12195 -22.997672,-0.6717 0.0666,-0.25466 -0.01187,-0.46302 -0.174359,-0.46302 -0.214167,0 -0.295442,-4.25798 -0.295442,-15.47812 v -15.47813 h 38.893749 38.893749 v 16.13958 c 0,8.87677 -0.089297,16.14067 -0.1984375,16.142 -0.1091406,0.001 -5.8737925,0.0311 -12.8103365,0.0661 -6.936544,0.0351 -12.689765,0.14164 -12.784933,0.23686 -0.09517,0.0952 0.263416,1.88115 0.796859,3.96875 1.430602,5.59856 1.597051,6.53146 1.230722,6.89779 -0.170145,0.17014 -0.994325,0.39491 -1.831509,0.49949 -1.504408,0.18793 -12.827664,0.23436 -14.619031,0.06 z m 9.590344,-21.85172 c 0.598766,-0.45939 0.306335,-1.74848 -0.477684,-2.1057 -0.756893,-0.34487 -1.937284,-0.0705 -2.1567,0.50128 -0.108863,0.28369 0.121816,0.68672 0.67696,1.18274 0.9305,0.8314 1.315344,0.91431 1.957424,0.42168 z"
         id="path1214" />
      <path
         style="fill:#c1bec0;stroke-width:8.66408"
         d="m -45.604545,175.89904 c -1.390999,-0.13543 -4.04813,-0.66832 -4.494178,-0.90131 -0.290531,-0.15176 -0.186952,-0.25006 0.396875,-0.37666 2.075371,-0.45002 2.153029,-0.59556 3.729871,-6.98994 0.575472,-2.33364 0.658659,-3.01329 0.400336,-3.27077 -0.247989,-0.24718 -3.633459,-0.3384 -14.136263,-0.38092 -22.017331,-0.0891 -23.141434,-0.12195 -22.997672,-0.6717 0.0666,-0.25466 -0.01187,-0.46302 -0.174359,-0.46302 -0.214167,0 -0.295442,-4.25798 -0.295442,-15.47812 v -15.47813 h 38.893749 38.893749 v 16.13958 c 0,8.87677 -0.089297,16.14067 -0.1984375,16.142 -0.1091406,0.001 -5.8737925,0.0311 -12.8103365,0.0661 -6.936544,0.0351 -12.689765,0.14164 -12.784933,0.23686 -0.09517,0.0952 0.263416,1.88115 0.796859,3.96875 1.430602,5.59856 1.597051,6.53146 1.230722,6.89779 -0.170145,0.17014 -0.994325,0.39491 -1.831509,0.49949 -1.504408,0.18793 -12.827664,0.23436 -14.619031,0.06 z m 10.010489,-21.60679 c 0.505095,-0.53765 0.540661,-0.7213 0.282874,-1.46079 -0.350221,-1.00465 -0.929629,-1.36382 -2.200079,-1.36382 -0.712314,0 -1.043268,0.16167 -1.378598,0.67345 -0.586187,0.89464 -0.134821,1.77552 1.188686,2.31983 1.31904,0.54247 1.448802,0.53208 2.107117,-0.16867 z"
         id="path1212" />
      <path
         style="fill:#bebdc0;stroke-width:8.66408"
         d="m -45.736836,175.81306 c -2.472243,-0.28769 -4.045485,-0.76753 -3.548333,-1.08224 0.205333,-0.12998 0.553051,-0.23815 0.772708,-0.24038 0.651695,-0.007 0.9754,-0.79746 2.236962,-5.46517 1.47819,-5.46923 1.48713,-5.68109 0.264327,-6.26421 -0.839637,-0.40039 -2.291739,-0.44565 -14.131535,-0.44042 -16.195163,0.007 -19.464332,-0.12216 -21.511316,-0.85091 l -1.521354,-0.54161 v -14.51983 -14.51982 h 38.893749 38.893749 v 15.58211 c 0,13.40971 -0.0538,15.60275 -0.3859001,15.73019 -0.2122434,0.0814 -3.3483655,0.0388 -6.9691569,-0.0947 -9.16047,-0.3378 -18.31917,-0.35756 -18.636522,-0.0402 -0.324503,0.32451 0.239644,3.19654 1.512975,7.70247 1.097066,3.88218 1.131994,4.38379 0.335375,4.81662 -0.713573,0.3877 -13.31052,0.56499 -16.205728,0.22809 z m 10.14278,-21.52081 c 0.505095,-0.53765 0.540661,-0.7213 0.282874,-1.46079 -0.350221,-1.00465 -0.929629,-1.36382 -2.200079,-1.36382 -0.712314,0 -1.043268,0.16167 -1.378598,0.67345 -0.586187,0.89464 -0.134821,1.77552 1.188686,2.31983 1.31904,0.54247 1.448802,0.53208 2.107117,-0.16867 z"
         id="path1210" />
      <path
         style="fill:#c1bdbc;stroke-width:8.66408"
         d="m -45.604545,175.82131 c -1.091406,-0.11616 -2.401093,-0.38938 -2.910416,-0.60715 l -0.926042,-0.39595 0.734584,-0.19635 c 0.404021,-0.10799 0.838076,-0.39101 0.964568,-0.62893 0.491757,-0.92496 2.715286,-9.49278 2.755868,-10.61904 l 0.0429,-1.19063 -3.96875,-0.0158 c -7.723629,-0.0308 -21.226084,-0.37302 -25.664583,-0.65044 -4.441025,-0.27757 -5.465629,-0.37057 -7.540625,-0.68443 l -1.058333,-0.1601 v -14.392 -14.392 h 38.893749 38.893749 v 15.58211 c 0,17.40876 0.1848855,15.90331 -1.9530986,15.90331 -0.6138359,0 -1.2467087,-0.13064 -1.4063794,-0.29031 -0.1929977,-0.193 -1.585492,-0.25952 -4.154114,-0.19844 -2.125089,0.0505 -3.863766,0.0323 -3.863727,-0.0404 3.8e-5,-0.0728 -3.125284,-0.11918 -6.945158,-0.10316 -3.819877,0.016 -7.146364,-0.0736 -7.392194,-0.19915 -0.24583,-0.12556 -0.502121,-0.13867 -0.569534,-0.0291 -0.173591,0.28205 0.723977,4.37857 1.811766,8.26894 1.08993,3.89802 1.122423,4.372 0.32921,4.80208 -0.712144,0.38612 -12.973676,0.56692 -16.073437,0.23701 z m 39.4940969,-12.88556 c -0.1791309,-0.0725 -0.5363184,-0.0769 -0.79375,-0.01 -0.2574316,0.0671 -0.1108684,0.12638 0.3256941,0.13178 0.4365625,0.005 0.6471867,-0.0495 0.4680559,-0.12197 z m -29.4836079,-8.6435 c 0.505095,-0.53765 0.540661,-0.7213 0.282874,-1.46079 -0.350221,-1.00465 -0.929629,-1.36382 -2.200079,-1.36382 -0.712314,0 -1.043268,0.16167 -1.378598,0.67345 -0.586187,0.89464 -0.134821,1.77552 1.188686,2.31983 1.31904,0.54247 1.448802,0.53208 2.107117,-0.16867 z"
         id="path1208" />
      <path
         style="fill:#bcbabc;stroke-width:8.66408"
         d="m -45.604545,175.80499 c -1.091406,-0.10719 -2.401093,-0.37306 -2.910416,-0.59083 l -0.926042,-0.39595 0.734584,-0.19635 c 0.404021,-0.10799 0.838076,-0.39101 0.964568,-0.62893 0.392946,-0.7391 2.695749,-9.3595 2.85438,-10.68519 l 0.150384,-1.25677 -1.293625,-0.009 c -23.039607,-0.15738 -30.775963,-0.41536 -36.020186,-1.20117 l -1.124479,-0.16849 v -14.392 -14.392 h 38.893749 38.893749 v 15.328 15.32801 l -0.5630227,0.17869 c -0.3096657,0.0983 -5.2805253,0.0819 -11.0463543,-0.0364 -5.765831,-0.11832 -11.435831,-0.21293 -12.599997,-0.21026 l -2.116667,0.005 0.09004,0.90929 c 0.04952,0.50011 0.564854,2.75476 1.145177,5.01033 1.702943,6.6189 1.656787,6.34951 1.171054,6.83524 -0.276807,0.27681 -1.147781,0.49272 -2.475023,0.61357 -2.611824,0.2378 -11.228758,0.20987 -13.821876,-0.0448 z m 9.970969,-21.20847 c 0.336801,-0.31641 0.612364,-0.86135 0.612364,-1.21098 0,-0.92422 -1.361127,-2.18249 -2.360898,-2.18249 -1.408956,0 -2.337583,1.50115 -1.625092,2.627 0.18509,0.29247 1.870708,1.12974 2.646021,1.31432 0.06338,0.0151 0.390803,-0.23145 0.727605,-0.54785 z"
         id="path1206" />
      <path
         style="fill:#b4b2b4;stroke-width:8.66408"
         d="m -44.943086,175.80649 c -1.309688,-0.10322 -2.70201,-0.33948 -3.094048,-0.52502 -0.70529,-0.33381 -0.707192,-0.3419 -0.180578,-0.76833 0.564062,-0.45675 1.433779,-3.12198 3.023854,-9.26652 l 0.91898,-3.55123 -0.545479,-0.58064 c -0.7504,-0.79877 -2.506681,-0.94213 -14.674812,-1.19786 -9.547379,-0.20065 -16.7659,-0.53514 -19.976041,-0.92564 -0.800365,-0.0974 -1.961224,-0.18974 -2.579688,-0.20529 l -1.124479,-0.0283 v -13.43461 -13.43461 h 38.893749 38.893749 v 14.97727 c 0,13.55423 -0.039799,14.96199 -0.4188883,14.81652 -0.2303886,-0.0884 -2.5754568,-0.22761 -5.2112627,-0.30935 -2.635808,-0.0817 -4.87001,-0.19658 -4.964898,-0.25522 -0.09489,-0.0587 -3.573838,-0.18144 -7.731003,-0.27288 l -7.558479,-0.16626 -0.424336,0.64762 c -0.498832,0.76131 -0.394607,1.32933 1.627685,8.87078 1.478158,5.51229 1.542034,5.3287 -1.960689,5.63535 -2.811952,0.24617 -9.635247,0.23254 -12.913336,-0.0258 z m 9.30951,-21.20997 c 0.336801,-0.31641 0.612364,-0.86135 0.612364,-1.21098 0,-0.92422 -1.361127,-2.18249 -2.360898,-2.18249 -1.408956,0 -2.337583,1.50115 -1.625092,2.627 0.18509,0.29247 1.870708,1.12974 2.646021,1.31432 0.06338,0.0151 0.390803,-0.23145 0.727605,-0.54785 z"
         id="path1204" />
      <path
         style="fill:#a7a6a9;stroke-width:8.66408"
         d="m -43.62017,175.80614 c -3.782337,-0.20746 -4.485695,-0.37679 -4.259603,-1.02551 0.08176,-0.2346 0.989441,-3.3108 2.017066,-6.83602 l 1.868411,-6.40948 -1.268145,-1.69705 c -0.697479,-0.93338 -1.524704,-1.82163 -1.838277,-1.97389 -0.336101,-0.16321 -3.920138,-0.33946 -8.73125,-0.42939 -10.287343,-0.19229 -25.351721,-0.66795 -26.483513,-0.83622 l -0.859896,-0.12784 v -12.29113 -12.29114 h 38.893749 38.893749 v 13.79079 13.79079 l -4.5640624,-0.1505 c -2.5102346,-0.0828 -5.7546876,-0.27301 -7.2098956,-0.42274 -3.478461,-0.35791 -7.669096,-0.62143 -10.418193,-0.65513 l -2.216108,-0.0272 -1.158682,1.31721 c -0.637275,0.72446 -1.224499,1.52459 -1.304946,1.77805 -0.137925,0.43456 0.942298,4.90977 2.428301,10.06011 0.366165,1.26909 0.628189,2.69319 0.582276,3.16466 -0.07265,0.74606 -0.203573,0.88031 -1.009523,1.03524 -1.529154,0.29394 -9.682252,0.43817 -13.361458,0.23636 z m 8.248894,-20.96507 c 0.865142,-0.96101 0.910648,-1.17293 0.45639,-2.12552 -0.847625,-1.77749 -3.046614,-2.363 -4.055872,-1.07994 -1.06336,1.35184 -0.534728,2.74531 1.262017,3.32665 1.701591,0.55055 1.734265,0.54886 2.337465,-0.12119 z"
         id="path1202" />
      <path
         style="fill:#9c9ca1;stroke-width:8.66408"
         d="m -46.337406,175.57239 c -1.527109,-0.2662 -1.789835,-0.57145 -1.307081,-1.51862 0.212484,-0.4169 1.05846,-3.13926 1.879946,-6.04967 0.821486,-2.91042 1.614056,-5.57349 1.761271,-5.91793 0.228925,-0.53562 0.112114,-0.83228 -0.807125,-2.0498 -0.591135,-0.78295 -1.137256,-1.58633 -1.213607,-1.7853 -0.07635,-0.19897 -0.42664,-0.4929 -0.778422,-0.65318 -0.351783,-0.16028 -0.715328,-0.59313 -0.807879,-0.96188 -0.167143,-0.66595 -0.18809,-0.67058 -3.116154,-0.68834 -3.918223,-0.0238 -10.104222,-0.19116 -18.927944,-0.51216 -3.986849,-0.14504 -8.660052,-0.26371 -10.384896,-0.26371 h -3.13608 v -11.64166 -11.64167 h 38.893749 38.893749 v 13.00255 13.00254 l -2.367698,-0.17874 c -3.677002,-0.27757 -9.968195,-0.66499 -15.566413,-0.95859 l -5.101823,-0.26757 -1.483183,1.51917 c -0.81575,0.83554 -1.7595,1.93823 -2.097222,2.45042 l -0.61404,0.93126 1.447416,5.29167 c 2.146732,7.84833 2.172018,7.9816 1.61924,8.53453 -0.414869,0.41498 -1.224135,0.46594 -8.058626,0.50746 -4.178594,0.0254 -8.105823,-0.0425 -8.727178,-0.15078 z m 11.132582,-20.40749 c 0.96285,-0.75738 1.082725,-1.39515 0.483142,-2.57043 -1.039045,-2.0367 -3.634531,-2.53571 -4.608962,-0.88613 -0.920875,1.55892 -0.366324,2.82191 1.531307,3.48756 1.716681,0.60218 1.790677,0.6013 2.594513,-0.031 z"
         id="path1200" />
      <path
         style="fill:#95969b;stroke-width:8.66408"
         d="m -45.796487,175.56688 c -1.742834,-0.21167 -2.101148,-0.53218 -1.709102,-1.5288 0.16061,-0.40827 0.77991,-2.46872 1.37622,-4.57878 0.596312,-2.11005 1.391597,-4.81577 1.767302,-6.0127 l 0.683104,-2.17624 -1.095084,-1.45043 c -0.602295,-0.79773 -1.095835,-1.54483 -1.096753,-1.66021 -7.94e-4,-0.11539 -0.358108,-0.41261 -0.79375,-0.66051 -0.674963,-0.38407 -0.792078,-0.60901 -0.792078,-1.52135 v -1.07064 l -1.653646,-0.005 c -0.909505,-0.003 -5.939895,-0.11604 -11.178645,-0.25165 -5.23875,-0.13561 -11.787187,-0.26206 -14.552083,-0.28099 -2.764896,-0.0189 -5.771224,-0.0982 -6.680729,-0.17604 l -1.653646,-0.14163 v -11.08167 -11.08168 h 38.893749 38.893749 v 12.27482 c 0,11.03591 -0.042963,12.2913 -0.4256696,12.43816 -0.2341192,0.0898 -3.180916,-0.009 -6.5484374,-0.21898 -3.367521,-0.21028 -7.730111,-0.45276 -9.694643,-0.53884 -1.964531,-0.0861 -4.316015,-0.22679 -5.22552,-0.31269 -1.653151,-0.15615 -1.653646,-0.15599 -1.653646,0.54755 0,0.49378 -0.423225,1.13724 -1.418431,2.15657 -2.603664,2.66677 -2.568115,2.28975 -0.821367,8.7107 2.142741,7.87661 2.119082,7.76718 1.75756,8.1287 -0.170449,0.17045 -0.994881,0.39547 -1.832064,0.50005 -1.852063,0.23135 -12.625229,0.2257 -14.54639,-0.008 z m 10.901069,-20.43724 c 0.632277,-0.49734 0.708162,-0.70672 0.586065,-1.61702 -0.360455,-2.68739 -4.189566,-4.04615 -5.19344,-1.84289 -0.37992,0.83384 -0.354645,2.24494 0.04981,2.78069 0.377415,0.49992 2.112174,1.17393 3.139318,1.21971 0.380558,0.017 1.018767,-0.22626 1.418246,-0.54049 z"
         id="path1198" />
      <path
         style="fill:#858991;stroke-width:8.66408"
         d="m -45.075378,175.58039 c -2.242989,-0.21071 -2.756567,-0.4263 -2.512332,-1.05462 0.09327,-0.23994 0.877178,-2.87704 1.742027,-5.86022 0.864849,-2.98317 1.765826,-5.86731 2.002173,-6.40918 l 0.429721,-0.98523 -1.095378,-1.45081 c -0.602459,-0.79795 -1.095378,-1.56055 -1.095378,-1.69466 0,-0.13411 -0.358701,-0.39241 -0.797115,-0.57401 -0.993622,-0.41157 -1.190003,-1.13845 -0.690118,-2.55437 0.213701,-0.60531 0.318251,-1.17086 0.232336,-1.25677 -0.08592,-0.0859 -1.952072,-0.15887 -4.147013,-0.16211 -2.194938,-0.003 -8.87236,-0.17954 -14.838714,-0.39179 -5.966354,-0.21224 -12.306432,-0.38818 -14.089062,-0.39098 l -3.241146,-0.005 V 142.3396 131.88856 h 38.893749 38.893749 v 11.812 11.812 l -2.0505208,-0.16726 c -1.1277864,-0.092 -5.6223952,-0.34478 -9.9880202,-0.56174 -4.365625,-0.21697 -8.862864,-0.4454 -9.993868,-0.50762 l -2.056368,-0.11314 0.176964,1.33402 c 0.151918,1.14521 0.101549,1.39449 -0.355873,1.76132 -0.293058,0.23501 -1.155229,1.1256 -1.915932,1.97908 -1.01092,1.13422 -1.347587,1.7038 -1.251122,2.11667 0.07259,0.31068 0.75135,2.76753 1.508363,5.45967 0.757012,2.69214 1.540137,5.4901 1.740278,6.21771 0.427673,1.5548 0.307837,2.12754 -0.495059,2.3661 -0.861981,0.25612 -12.692502,0.40048 -15.006341,0.18311 z m 10.524461,-20.2913 c 1.221446,-0.85553 0.475054,-3.19404 -1.386705,-4.34467 -1.235226,-0.76341 -2.912772,-0.62166 -3.626819,0.30647 -0.657799,0.85501 -0.647943,2.89665 0.01688,3.49831 1.051213,0.95133 3.960436,1.26568 4.99664,0.53989 z"
         id="path1196" />
      <path
         style="fill:#82858d;stroke-width:8.66408"
         d="m -44.175109,175.58645 c -1.469385,-0.0957 -2.847205,-0.31987 -3.061825,-0.49811 -0.340474,-0.28279 -0.297743,-0.62006 0.335203,-2.64584 0.398984,-1.27696 1.226207,-4.04814 1.838278,-6.1582 0.612068,-2.11005 1.293429,-4.04313 1.514136,-4.29574 0.363347,-0.41587 0.328943,-0.56337 -0.363953,-1.56029 -0.420878,-0.60555 -1.003358,-1.44591 -1.2944,-1.86748 -0.291041,-0.42156 -0.826823,-0.91602 -1.190625,-1.09879 -0.979926,-0.49232 -0.886687,-2.08059 0.218253,-3.7178 0.462044,-0.68462 0.840081,-1.35785 0.840081,-1.49608 0,-0.14859 -1.791613,-0.25132 -4.383019,-0.25132 -2.410661,0 -4.603496,-0.11799 -4.872966,-0.26221 -0.486214,-0.26021 -10.934957,-0.54962 -22.560258,-0.62487 l -6.019368,-0.039 9.8e-5,-9.59114 9.7e-5,-9.59115 h 38.893749 38.893749 v 10.9519 c 0,10.12475 -0.034462,10.96513 -0.4562872,11.127 -0.2509599,0.0963 -2.2452567,0.0495 -4.4317708,-0.10392 -3.76125,-0.26397 -9.748652,-0.61142 -17.006212,-0.98688 -3.659712,-0.18933 -3.685559,-0.17292 -2.572785,1.63378 0.358513,0.58208 0.650153,1.29645 0.648084,1.5875 -0.0021,0.29104 -0.841547,1.42213 -1.865508,2.51354 -1.617639,1.72419 -1.845974,2.08845 -1.741461,2.77812 0.06616,0.43656 0.844679,3.3536 1.730054,6.48229 0.885376,3.1287 1.611805,6.01891 1.614287,6.4227 0.0034,0.55155 -0.16864,0.79998 -0.691663,0.99884 -0.864566,0.3287 -10.404351,0.52824 -14.013968,0.29311 z m 9.624192,-20.29736 c 1.221446,-0.85553 0.475054,-3.19404 -1.386705,-4.34467 -1.235226,-0.76341 -2.912772,-0.62166 -3.626819,0.30647 -0.657799,0.85501 -0.647943,2.89665 0.01688,3.49831 1.051213,0.95133 3.960436,1.26568 4.99664,0.53989 z"
         id="path1194" />
      <path
         style="fill:#828488;stroke-width:8.66408"
         d="m -44.202406,175.58645 c -1.507901,-0.0972 -2.838321,-0.31351 -3.014838,-0.49011 -0.244871,-0.24499 0.0522,-1.584 1.320758,-5.95312 0.900179,-3.10038 1.868125,-6.11012 2.150988,-6.68833 l 0.514298,-1.05129 -0.723652,-1.03817 c -0.398007,-0.57099 -0.961776,-1.38307 -1.252818,-1.80464 -0.291041,-0.42156 -0.826823,-0.91281 -1.190625,-1.09167 -0.928949,-0.45671 -0.985189,-1.52728 -0.154678,-2.94445 1.058463,-1.80613 3.205052,-3.99452 4.802585,-4.89611 0.802224,-0.45275 1.387289,-0.93855 1.300144,-1.07955 -0.08715,-0.14101 -0.988595,-0.25637 -2.003219,-0.25637 -1.526032,0 -1.869493,-0.08 -1.987852,-0.46302 -0.347921,-1.12594 -0.555622,-1.25673 -2.116658,-1.33292 -1.097495,-0.0536 -1.661409,-0.21048 -1.901722,-0.52917 -0.236059,-0.31304 -1.043572,-0.54683 -2.613467,-0.75664 -2.334633,-0.31202 -2.72211,-0.54123 -2.729415,-1.61461 -0.0034,-0.50124 -0.147921,-0.59531 -0.914477,-0.59531 -0.500734,0 -0.984012,-0.11906 -1.073949,-0.26458 -0.08994,-0.14552 -0.624104,-0.26459 -1.187036,-0.26459 -0.776613,0 -1.149028,-0.15956 -1.543818,-0.66145 -0.355473,-0.45192 -0.780652,-0.66146 -1.34212,-0.66146 -0.762831,0 -0.821817,-0.0665 -0.821817,-0.92604 0,-0.50933 -0.119063,-0.92605 -0.264584,-0.92605 -0.14552,0 -0.264583,0.23813 -0.264583,0.52917 0,0.37151 -0.177359,0.53003 -0.595312,0.53208 -0.327422,0.002 -1.041797,0.0767 -1.5875,0.16691 l -0.992188,0.164 v -2.68045 c 0,-2.20624 -0.07021,-2.68046 -0.396875,-2.68046 -0.317733,0 -0.396875,0.39835 -0.396875,1.99758 v 1.99758 l -1.521354,-0.0793 -1.521354,-0.0794 -0.07405,-3.37344 -0.07405,-3.37343 h 1.330822 c 0.731952,0 1.330822,-0.11907 1.330822,-0.26459 0,-0.15287 0.837847,-0.26458 1.984375,-0.26458 1.146527,0 1.984374,0.11171 1.984374,0.26458 0,0.14552 0.357188,0.26459 0.79375,0.26459 0.436563,0 0.79375,-0.11907 0.79375,-0.26459 0,-0.17468 9.304515,-0.26458 27.384375,-0.26458 h 27.384374 v 10.5578 10.5578 l -1.3890625,0.0948 c -0.7639843,0.0521 -2.2224999,-0.008 -3.2411455,-0.13312 -2.272692,-0.27966 -3.844957,-0.40075 -5.490104,-0.42286 -0.88976,-0.0119 -1.256771,-0.12451 -1.256771,-0.38545 0,-0.48836 -0.585721,-0.68976 -2.006015,-0.68976 -0.862709,0 -1.168985,-0.10399 -1.168985,-0.39688 0,-0.45716 -1.194178,-0.55465 -1.463148,-0.11944 -0.117933,0.19082 -0.284046,0.18399 -0.532085,-0.0219 -0.198343,-0.16461 -0.594442,-0.22508 -0.880222,-0.13438 -0.285776,0.0907 -0.588676,0.0531 -0.673107,-0.0835 -0.08443,-0.13662 -0.978996,-0.33129 -1.987918,-0.43261 -1.284145,-0.12897 -1.881357,-0.30659 -1.990937,-0.59214 -0.139406,-0.36329 -0.208864,-0.36056 -0.63487,0.025 -0.629507,0.5697 -0.833546,0.54613 -0.833546,-0.0963 0,-0.38319 -0.17639,-0.52916 -0.639411,-0.52916 -0.351673,0 -0.679095,0.10556 -0.727604,0.23459 -0.133096,0.35402 -2.601735,-0.30221 -2.601735,-0.69162 0,-0.1852 0.111712,-0.33672 0.248248,-0.33672 0.136538,0 0.225835,-0.31904 0.198437,-0.70897 -0.03909,-0.55637 0.09256,-0.74408 0.611648,-0.87208 0.578417,-0.14263 0.600612,-0.18649 0.176798,-0.34936 -0.266563,-0.10244 -0.783725,-0.18626 -1.14925,-0.18626 -0.442074,0 -0.710919,-0.17717 -0.802968,-0.52917 -0.07611,-0.29104 -0.215469,-0.52916 -0.309689,-0.52916 -0.337733,0 -1.055405,2.0591 -0.91063,2.61272 0.08128,0.3108 0.0067,0.73509 -0.165738,0.94286 -0.268295,0.32328 -0.385675,0.3056 -0.813832,-0.12256 -0.413355,-0.41336 -0.739452,-0.47199 -1.876168,-0.33737 -1.345861,0.1594 -1.372301,0.14937 -1.212845,-0.46039 0.283303,-1.08336 -0.928184,-1.8056 -1.623456,-0.96785 -0.478102,0.57608 -0.06754,1.50759 0.664461,1.50759 0.355417,0 0.58202,0.10386 0.50356,0.23081 -0.158996,0.25727 1.323025,0.55556 2.782382,0.56002 1.045345,0.003 3.534569,1.46543 4.785757,2.81126 0.919038,0.98855 2.598933,3.78792 2.592335,4.31984 -0.0028,0.22684 -0.842902,1.30541 -1.866863,2.39682 -1.617639,1.72419 -1.845974,2.08845 -1.741461,2.77812 0.06616,0.43656 0.844679,3.3536 1.730054,6.48229 0.885376,3.1287 1.611805,6.01891 1.614287,6.4227 0.0034,0.55155 -0.16864,0.79998 -0.691663,0.99884 -0.865283,0.32898 -10.398644,0.52799 -14.041265,0.29311 z m 9.651489,-20.29736 c 1.221446,-0.85553 0.475054,-3.19404 -1.386705,-4.34467 -1.235226,-0.76341 -2.912772,-0.62166 -3.626819,0.30647 -0.657799,0.85501 -0.647943,2.89665 0.01688,3.49831 1.051213,0.95133 3.960436,1.26568 4.99664,0.53989 z"
         id="path1192" />
      <path
         style="fill:#808286;stroke-width:8.66408"
         d="m -43.813239,175.57653 c -1.755674,-0.10173 -3.236457,-0.31279 -3.409667,-0.486 -0.503578,-0.50358 3.151926,-12.82472 3.943469,-13.29175 0.294521,-0.17378 0.355566,-0.33842 0.17448,-0.47057 -0.153194,-0.11181 -0.801976,-0.95662 -1.441739,-1.87737 -0.639762,-0.92075 -1.496687,-1.84655 -1.904277,-2.05732 -1.069713,-0.55317 -0.974487,-1.54729 0.336224,-3.5101 1.257591,-1.88325 2.760208,-3.25129 4.608296,-4.19556 3.483409,-1.77984 8.253957,-0.075 10.925534,3.90439 1.552755,2.31287 1.622669,2.72615 0.637771,3.77008 -2.949433,3.12618 -3.007667,3.2075 -2.882244,4.02505 0.11585,0.75515 1.251254,4.91546 2.725039,9.985 0.834353,2.87002 0.780401,3.6669 -0.267081,3.94493 -1.128596,0.29955 -9.848429,0.46766 -13.445805,0.25922 z m 9.262322,-20.28744 c 1.221446,-0.85553 0.475054,-3.19404 -1.386705,-4.34467 -1.235226,-0.76341 -2.912772,-0.62166 -3.626819,0.30647 -0.657799,0.85501 -0.647943,2.89665 0.01688,3.49831 1.051213,0.95133 3.960436,1.26568 4.99664,0.53989 z m 24.53283,-2.29568 c -2.220844,-0.29826 -3.799853,-0.42785 -5.490104,-0.45056 -0.88976,-0.0119 -1.256771,-0.12451 -1.256771,-0.38545 0,-0.48836 -0.585721,-0.68976 -2.006015,-0.68976 -0.862709,0 -1.168985,-0.10399 -1.168985,-0.39688 0,-0.45716 -1.194178,-0.55465 -1.463148,-0.11944 -0.117933,0.19082 -0.284046,0.18399 -0.532085,-0.0219 -0.198343,-0.16461 -0.594442,-0.22508 -0.880222,-0.13438 -0.285776,0.0907 -0.588676,0.0531 -0.673107,-0.0835 -0.08443,-0.13662 -0.978996,-0.33129 -1.987918,-0.43261 -1.284145,-0.12897 -1.881357,-0.30659 -1.990937,-0.59214 -0.139406,-0.36329 -0.208864,-0.36056 -0.63487,0.025 -0.655839,0.59353 -0.833546,0.5448 -0.833546,-0.22857 0,-0.41157 -0.149931,-0.66146 -0.396875,-0.66146 -0.218281,0 -0.396875,-0.12133 -0.396875,-0.26962 0,-0.1522 -0.2755,-0.20048 -0.632595,-0.11085 -0.81806,0.20532 -1.018619,-0.15154 -0.66127,-1.17663 0.232571,-0.66716 0.433564,-0.82415 1.055166,-0.82415 0.506158,0 0.767866,-0.13526 0.767866,-0.39687 0,-0.21828 0.132947,-0.39688 0.295441,-0.39688 0.18655,0 0.225095,0.21942 0.104577,0.59532 -0.104979,0.32742 -0.208161,0.89296 -0.229299,1.25677 -0.03117,0.53653 0.09899,0.67727 0.689176,0.74518 0.609082,0.0701 0.727131,-0.0161 0.724692,-0.52917 -0.0059,-1.24752 -0.340292,-2.59726 -0.643406,-2.59726 -0.527611,0 -1.470348,-1.51991 -1.470348,-2.37054 0,-0.53869 -0.131117,-0.80446 -0.396875,-0.80446 -0.218281,0 -0.396875,-0.17141 -0.396875,-0.38091 0,-0.24916 -0.343149,-0.4093 -0.992187,-0.46302 -0.938308,-0.0777 -0.996646,-0.136 -1.074307,-1.0743 l -0.08212,-0.99219 h -1.439238 -1.439235 v -0.92604 -0.92604 h -1.852084 -1.852083 v -0.91007 c 0,-0.86065 -0.05388,-0.91453 -0.992187,-0.99219 -0.938308,-0.0777 -0.996646,-0.136 -1.074306,-1.07431 -0.07766,-0.9383 -0.131538,-0.99218 -0.992188,-0.99218 -0.966917,0 -1.150683,-0.32635 -0.532093,-0.94494 0.320387,-0.32039 3.202718,-0.37798 18.917708,-0.37798 h 18.539732 v 10.58333 10.58334 h -1.036693 c -0.5701824,0 -1.1952605,0.0421 -1.3890625,0.0935 -0.1938046,0.0514 -1.1858069,-0.0184 -2.2044525,-0.15524 z m -20.76936,-8.14009 c -0.321405,-0.19864 -0.307906,-0.265 0.08454,-0.41559 0.5589,-0.21447 0.750427,-0.0802 0.488971,0.34287 -0.121431,0.19648 -0.330388,0.22298 -0.573511,0.0727 z m -20.108764,-2.77839 c 0,-0.88195 -0.0441,-0.92604 -0.926042,-0.92604 -0.903994,0 -0.926041,-0.0252 -0.926041,-1.05834 0,-0.74222 -0.113216,-1.05833 -0.379045,-1.05833 -0.455234,0 -0.756441,-0.81399 -0.52469,-1.41793 0.09163,-0.23879 0.332454,-0.43415 0.535167,-0.43415 0.202711,0 0.368568,-0.23813 0.368568,-0.52917 0,-0.48213 0.176389,-0.52917 1.984375,-0.52917 1.807985,0 1.984374,0.047 1.984374,0.52917 0,0.29104 0.172371,0.52917 0.383048,0.52917 0.275545,0 0.405493,0.38984 0.463021,1.38906 l 0.07997,1.38906 0.992188,0.0821 0.992187,0.0821 v 1.43923 1.43924 h -2.513542 -2.513541 z"
         id="path1190" />
      <path
         style="fill:#8a827b;stroke-width:8.66408"
         d="m -43.40967,175.57951 c -2.131192,-0.10335 -3.616481,-0.29223 -3.808587,-0.48434 -0.243506,-0.2435 0.05317,-1.57876 1.308264,-5.88811 1.930215,-6.62737 2.235769,-7.41786 2.871634,-7.42909 0.418978,-0.007 0.427842,-0.0473 0.0734,-0.33073 -0.221712,-0.17727 -0.976995,-1.13317 -1.678402,-2.12421 -0.701408,-0.99105 -1.561801,-1.91083 -1.911988,-2.04397 -1.780913,-0.67711 0.769512,-5.01468 4.093194,-6.9614 1.961335,-1.14878 3.509134,-1.51265 5.232643,-1.23014 1.357456,0.2225 1.793941,0.41668 4.060381,1.80635 1.156441,0.70908 3.460435,3.69731 3.815516,4.94865 0.15494,0.54603 -0.336534,1.2446 -2.558745,3.63699 -0.545704,0.5875 -0.992188,1.29277 -0.992188,1.56728 0,0.49054 1.112626,4.60461 2.681925,9.91675 0.953162,3.22648 0.930225,4.06845 -0.118412,4.34671 -1.119102,0.29695 -9.104653,0.46148 -13.068638,0.26926 z m 8.858753,-20.29042 c 1.221446,-0.85553 0.475054,-3.19404 -1.386705,-4.34467 -1.235226,-0.76341 -2.912772,-0.62166 -3.626819,0.30647 -0.657799,0.85501 -0.647943,2.89665 0.01688,3.49831 1.051213,0.95133 3.960436,1.26568 4.99664,0.53989 z m 24.53283,-2.29568 c -2.220844,-0.29826 -3.799853,-0.42785 -5.490104,-0.45056 -0.88976,-0.0119 -1.256771,-0.12451 -1.256771,-0.38545 0,-0.48836 -0.585721,-0.68976 -2.006015,-0.68976 -0.862709,0 -1.168985,-0.10399 -1.168985,-0.39688 0,-0.45716 -1.194178,-0.55465 -1.463148,-0.11944 -0.117933,0.19082 -0.284046,0.18399 -0.532085,-0.0219 -0.198343,-0.16461 -0.594442,-0.22508 -0.880222,-0.13438 -0.285776,0.0907 -0.588676,0.0531 -0.673107,-0.0835 -0.08443,-0.13662 -0.978996,-0.33129 -1.987918,-0.43261 -1.284145,-0.12897 -1.881357,-0.30659 -1.990937,-0.59214 -0.139406,-0.36329 -0.208864,-0.36056 -0.63487,0.025 -0.655839,0.59353 -0.833546,0.5448 -0.833546,-0.22857 0,-0.41157 -0.149931,-0.66146 -0.396875,-0.66146 -0.292148,0 -0.394142,-0.29672 -0.386519,-1.12448 l 0.01035,-1.12447 0.373748,0.85989 c 0.281387,0.6474 0.540361,0.8599 1.047977,0.8599 0.624001,0 0.674241,-0.0899 0.674241,-1.20624 0,-0.6771 0.108045,-1.13947 0.2463,-1.05402 0.135467,0.0837 0.321088,0.0312 0.412491,-0.11668 0.0914,-0.14789 0.635413,-0.2689 1.208908,-0.2689 0.935844,0 1.042717,0.0678 1.042717,0.66146 0,0.3638 0.119063,0.66146 0.264583,0.66146 0.145521,0 0.264584,-0.45933 0.264584,-1.02074 0,-0.98721 0.03694,-1.02855 1.124479,-1.25838 1.069462,-0.22602 1.120272,-0.27959 1.038497,-1.09493 -0.07231,-0.72094 0.02514,-0.89954 0.612537,-1.12287 0.384186,-0.14607 1.226548,-0.26558 1.871919,-0.26558 h 1.173401 v -1.05833 c 0,-0.76436 -0.110244,-1.05834 -0.396875,-1.05834 -0.218281,0 -0.396875,-0.1647 -0.396875,-0.36601 0,-0.20131 -0.238125,-0.42829 -0.529167,-0.5044 -0.291041,-0.0761 -0.529166,-0.32812 -0.529166,-0.56002 0,-0.23191 -0.178594,-0.42165 -0.396875,-0.42165 -0.277183,0 -0.396875,-0.27928 -0.396875,-0.92604 0,-0.88654 -0.04056,-0.92604 -0.950812,-0.92604 -0.728298,0 -0.983197,-0.12384 -1.089192,-0.52917 -0.114014,-0.43599 -0.360897,-0.52917 -1.40213,-0.52917 -1.398577,0 -1.584949,-0.20699 -1.584949,-1.76033 0,-1.72442 -0.28773,-1.67925 10.696725,-1.67925 h 9.940774 v 10.58333 10.58334 h -1.036693 c -0.5701824,0 -1.1952605,0.0421 -1.3890625,0.0935 -0.1938046,0.0514 -1.1858069,-0.0184 -2.2044525,-0.15524 z m -21.030324,-5.01589 c 0.0022,-0.19049 0.119467,-0.52494 0.260533,-0.74322 0.208515,-0.32265 0.257238,-0.28846 0.260532,0.18283 0.0022,0.31883 -0.115012,0.65328 -0.260532,0.74322 -0.145521,0.0899 -0.262761,0.008 -0.260533,-0.18283 z"
         id="path1188" />
      <path
         style="fill:#7e8087;stroke-width:8.66408"
         d="m -43.40967,175.56694 c -2.14808,-0.0964 -3.614957,-0.27814 -3.808587,-0.47177 -0.243506,-0.2435 0.05317,-1.57876 1.308264,-5.88811 1.879738,-6.45407 2.245178,-7.42067 2.805488,-7.42067 0.622046,0 0.514369,-0.26399 -0.780415,-1.9133 -0.654751,-0.83404 -1.190458,-1.62478 -1.190458,-1.75721 0,-0.13243 -0.47625,-0.43134 -1.058333,-0.66425 -0.88346,-0.35349 -1.058334,-0.54641 -1.058334,-1.16755 0,-0.81017 1.002083,-2.54378 2.372781,-4.10492 1.061855,-1.20938 3.429825,-2.63144 5.035553,-3.02404 1.377039,-0.33669 3.519532,-0.0696 4.670869,0.58231 2.589046,1.46595 3.204207,1.99049 4.370393,3.72657 1.837385,2.73529 1.839211,2.69071 -0.190336,4.65089 -1.982206,1.91447 -2.396922,2.20175 -2.631194,1.82269 -0.251399,-0.40677 -1.613794,-0.31995 -1.984277,0.12646 -0.20709,0.24953 -0.55902,0.33615 -0.958437,0.2359 -0.515705,-0.12944 -0.631185,-0.0564 -0.631185,0.39943 0,0.64767 0.581064,0.73605 1.058333,0.16098 0.46867,-0.56472 1.058333,-0.49101 1.058333,0.13229 0,0.64334 0.452284,0.68075 1.103646,0.0913 0.358198,-0.32416 0.483854,-0.34675 0.483854,-0.087 0,0.193 0.168037,0.53887 0.373417,0.76861 0.466273,0.52158 3.654992,12.03937 3.544224,12.80189 -0.05859,0.40331 -0.338921,0.60848 -1.007224,0.73717 -1.45669,0.28049 -9.042196,0.43491 -12.886375,0.26233 z m 9.474094,-20.28755 c 0.828088,-0.74941 0.651542,-2.05705 -0.440997,-3.26636 -1.243613,-1.37653 -3.173603,-2.33317 -3.852169,-1.9094 -0.2692,0.16812 -0.665374,0.30567 -0.880383,0.30567 -0.215008,0 -0.66722,0.40661 -1.004913,0.90357 -1.254469,1.84612 -0.360503,3.80589 2.014315,4.41582 1.259612,0.3235 3.587781,0.0723 4.164147,-0.4493 z m 23.917489,-2.28598 c -2.220844,-0.29826 -3.799853,-0.42785 -5.490104,-0.45056 -0.88976,-0.0119 -1.256771,-0.12451 -1.256771,-0.38545 0,-0.48836 -0.585721,-0.68976 -2.006015,-0.68976 -0.862709,0 -1.168985,-0.10399 -1.168985,-0.39688 0,-0.45716 -1.194178,-0.55465 -1.463148,-0.11944 -0.117933,0.19082 -0.284046,0.18399 -0.532085,-0.0219 -0.198343,-0.16461 -0.594442,-0.22508 -0.880222,-0.13438 -0.285776,0.0907 -0.588676,0.0531 -0.673107,-0.0835 -0.08443,-0.13662 -0.978996,-0.33129 -1.987918,-0.43261 -1.284145,-0.12897 -1.881357,-0.30659 -1.990937,-0.59214 -0.139406,-0.36329 -0.208864,-0.36056 -0.63487,0.025 -0.655839,0.59353 -0.833546,0.5448 -0.833546,-0.22857 0,-0.41157 -0.149931,-0.66146 -0.396875,-0.66146 -0.292148,0 -0.394142,-0.29672 -0.386519,-1.12448 l 0.01035,-1.12447 0.373748,0.85989 c 0.281387,0.6474 0.540361,0.8599 1.047977,0.8599 0.624001,0 0.674241,-0.0899 0.674241,-1.20624 0,-0.6771 0.108045,-1.13947 0.2463,-1.05402 0.135467,0.0837 0.321088,0.0312 0.412491,-0.11668 0.0914,-0.14789 0.635413,-0.2689 1.208908,-0.2689 0.935844,0 1.042717,0.0678 1.042717,0.66146 0,0.3638 0.119063,0.66146 0.264583,0.66146 0.145521,0 0.264584,-0.45933 0.264584,-1.02074 0,-0.98721 0.03694,-1.02855 1.124479,-1.25838 1.069462,-0.22602 1.120272,-0.27959 1.038497,-1.09493 -0.07231,-0.72094 0.02514,-0.89954 0.612537,-1.12287 0.384186,-0.14607 1.226548,-0.26558 1.871919,-0.26558 h 1.173401 v -1.05833 c 0,-0.76436 -0.110244,-1.05834 -0.396875,-1.05834 -0.218281,0 -0.396875,-0.1647 -0.396875,-0.36601 0,-0.20131 -0.238125,-0.42829 -0.529167,-0.5044 -0.291041,-0.0761 -0.529166,-0.32812 -0.529166,-0.56002 0,-0.23191 -0.178594,-0.42165 -0.396875,-0.42165 -0.277183,0 -0.396875,-0.27928 -0.396875,-0.92604 0,-0.88654 -0.04056,-0.92604 -0.950812,-0.92604 -0.728298,0 -0.983197,-0.12384 -1.089192,-0.52917 -0.114014,-0.43599 -0.360897,-0.52917 -1.40213,-0.52917 -1.398577,0 -1.584949,-0.20699 -1.584949,-1.76033 0,-1.72442 -0.28773,-1.67925 10.696725,-1.67925 h 9.940774 v 10.58333 10.58334 h -1.036693 c -0.5701824,0 -1.1952605,0.0421 -1.3890625,0.0935 -0.1938046,0.0514 -1.1858069,-0.0184 -2.2044525,-0.15524 z m -21.030324,-5.01589 c 0.0022,-0.19049 0.119467,-0.52494 0.260533,-0.74322 0.208515,-0.32265 0.257238,-0.28846 0.260532,0.18283 0.0022,0.31883 -0.115012,0.65328 -0.260532,0.74322 -0.145521,0.0899 -0.262761,0.008 -0.260533,-0.18283 z"
         id="path1186" />
      <path
         style="fill:#7b7d83;stroke-width:8.66408"
         d="m -43.40967,175.56694 c -2.164421,-0.0972 -3.614407,-0.27759 -3.811008,-0.47419 -0.246737,-0.24673 -0.194035,-0.71742 0.23686,-2.1155 0.304814,-0.98898 1.120238,-3.74762 1.812055,-6.1303 1.203881,-4.14628 1.524966,-4.87035 2.274472,-5.12914 0.219281,-0.0757 -0.09979,-0.67961 -0.921316,-1.74377 -0.691224,-0.89537 -1.256771,-1.73392 -1.256771,-1.86345 0,-0.12952 -0.47625,-0.42605 -1.058333,-0.65896 -1.239499,-0.49595 -1.331937,-0.97085 -0.504616,-2.59253 0.793874,-1.55612 2.721295,-3.51776 4.544798,-4.62548 1.4248,-0.86552 1.766109,-0.95908 3.595669,-0.98562 1.729258,-0.0251 2.246847,0.0814 3.580894,0.73638 2.634105,1.29337 6.097394,5.37314 5.556906,6.54607 -0.09153,0.19863 -0.995833,1.11928 -2.009563,2.04589 -1.357995,1.24128 -1.920973,1.60691 -2.138825,1.38906 -0.42409,-0.42409 -1.655398,-0.36455 -2.039808,0.0986 -0.20709,0.24953 -0.55902,0.33615 -0.958437,0.2359 -0.515705,-0.12944 -0.631185,-0.0564 -0.631185,0.39943 0,0.64767 0.581064,0.73605 1.058333,0.16098 0.46867,-0.56472 1.058333,-0.49101 1.058333,0.13229 0,0.64334 0.452284,0.68075 1.103646,0.0913 0.358198,-0.32416 0.483854,-0.34675 0.483854,-0.087 0,0.193 0.168037,0.53887 0.373417,0.76861 0.466273,0.52158 3.654992,12.03937 3.544224,12.80189 -0.05859,0.40331 -0.338921,0.60848 -1.007224,0.73717 -1.45669,0.28049 -9.042196,0.43491 -12.886375,0.26233 z m 9.474094,-20.28755 c 0.828088,-0.74941 0.651542,-2.05705 -0.440997,-3.26636 -1.243613,-1.37653 -3.173603,-2.33317 -3.852169,-1.9094 -0.2692,0.16812 -0.665374,0.30567 -0.880383,0.30567 -0.215008,0 -0.66722,0.40661 -1.004913,0.90357 -1.254469,1.84612 -0.360503,3.80589 2.014315,4.41582 1.259612,0.3235 3.587781,0.0723 4.164147,-0.4493 z m 25.7695721,-5.39925 c -0.089937,-0.14552 -0.6327458,-0.26459 -1.2062407,-0.26459 -1.0152884,0 -1.0427174,-0.0244 -1.0427174,-0.92604 0,-0.74965 -0.100793,-0.92604 -0.529167,-0.92604 -0.352777,0 -0.529167,-0.17639 -0.529167,-0.52917 0,-0.29398 -0.176389,-0.52916 -0.396875,-0.52916 -0.277714,0 -0.396874,-0.28001 -0.396874,-0.93259 0,-1.17228 -0.612,-1.44866 -3.20784,-1.44866 -1.166273,0 -1.790013,-0.0978 -1.686952,-0.26459 0.08994,-0.14552 0.989933,-0.26458 1.999991,-0.26458 1.456025,0 1.836467,-0.0822 1.836467,-0.39687 0,-0.31319 -0.376626,-0.39773 -1.785937,-0.40093 -0.982266,-0.002 -1.905,-0.0915 -2.050521,-0.19844 -0.46587,-0.34227 -0.926042,-1.35742 -0.926042,-2.04288 0,-0.48866 -0.140348,-0.66505 -0.529166,-0.66505 -0.352777,0 -0.529167,-0.17639 -0.529167,-0.52916 0,-0.29104 -0.164708,-0.52917 -0.366017,-0.52917 -0.201308,0 -0.428286,-0.23812 -0.504396,-0.52917 -0.07611,-0.29104 -0.32812,-0.52916 -0.560025,-0.52916 -0.305491,0 -0.421645,-0.25511 -0.421645,-0.92604 0,-0.87587 -0.04851,-0.92605 -0.895184,-0.92605 -0.672666,0 -0.929579,-0.13153 -1.033563,-0.52916 -0.115533,-0.4418 -0.360894,-0.52917 -1.486066,-0.52917 h -1.347687 v -1.20952 c 0,-2.05238 -0.467103,-1.96548 10.564434,-1.96548 h 9.808482 v 8.08869 c 0,6.83717 -0.061407,8.1501 -0.396875,8.48557 -0.2182812,0.21828 -0.396875,0.68602 -0.396875,1.03943 0,0.55587 -0.1228354,0.64256 -0.9104259,0.64256 -0.5007345,0 -0.9840119,-0.11906 -1.073949,-0.26458 z"
         id="path1184" />
      <path
         style="fill:#837b76;stroke-width:8.66408"
         d="m -42.958711,175.54765 c -3.799462,-0.2035 -4.601888,-0.38874 -4.421153,-1.02062 0.652465,-2.28117 2.914361,-9.79461 3.286154,-10.91578 0.404645,-1.22023 0.579397,-1.44017 1.201144,-1.51171 0.640705,-0.0737 1.081681,-0.57774 0.505476,-0.57774 -0.25622,0 -2.688288,-3.06774 -2.688288,-3.39093 0,-0.11837 -0.420388,-0.41569 -0.934196,-0.66071 -0.513805,-0.24502 -1.000599,-0.61854 -1.081762,-0.83005 -0.446884,-1.16456 2.867287,-5.05153 5.402474,-6.33621 1.75914,-0.89142 4.926343,-0.9795 6.49338,-0.18058 2.608807,1.33004 5.73052,4.62149 5.73052,6.0421 0,0.28149 -0.830291,1.30865 -1.86637,2.3089 -1.402766,1.35425 -1.94169,1.72651 -2.169584,1.49861 -0.430435,-0.43043 -1.659906,-0.37572 -2.04734,0.0911 -0.20709,0.24953 -0.55902,0.33615 -0.958437,0.2359 -0.515705,-0.12944 -0.631185,-0.0564 -0.631185,0.39943 0,0.64767 0.581064,0.73605 1.058333,0.16098 0.46867,-0.56472 1.058333,-0.49101 1.058333,0.13229 0,0.64334 0.452284,0.68075 1.103646,0.0913 0.420566,-0.38061 0.483854,-0.38484 0.483854,-0.0324 0,0.22301 0.16541,0.54276 0.367575,0.71054 0.202166,0.16778 0.424471,0.56932 0.494012,0.89229 0.06954,0.32298 0.803965,3.00906 1.632053,5.96907 0.82809,2.96001 1.468988,5.63407 1.424218,5.94235 -0.05885,0.40523 -0.33795,0.60984 -1.007441,0.73856 -1.50871,0.29006 -8.872458,0.43414 -12.435416,0.24331 z m 9.023135,-20.26826 c 0.828088,-0.74941 0.651542,-2.05705 -0.440997,-3.26636 -1.243613,-1.37653 -3.173603,-2.33317 -3.852169,-1.9094 -0.2692,0.16812 -0.665374,0.30567 -0.880383,0.30567 -0.215008,0 -0.66722,0.40661 -1.004913,0.90357 -1.254469,1.84612 -0.360503,3.80589 2.014315,4.41582 1.259612,0.3235 3.587781,0.0723 4.164147,-0.4493 z"
         id="path1182" />
      <path
         style="fill:#736e6c;stroke-width:8.66408"
         d="m -46.202778,175.30422 c -0.547312,-0.11347 -1.057439,-0.26865 -1.133618,-0.34482 -0.135557,-0.13556 1.210548,-4.86966 2.878466,-10.12324 0.912325,-2.87363 0.989602,-2.94362 3.483594,-3.15498 1.673002,-0.14179 1.865799,-0.1866 2.336019,-0.54298 0.393118,-0.29795 0.428609,-0.47015 0.189127,-0.91763 -0.371777,-0.69467 -0.721482,-0.70276 -0.937646,-0.0217 -0.09237,0.29104 -0.399669,0.52916 -0.682879,0.52916 -0.28321,0 -0.733396,0.13644 -1.000416,0.3032 -0.411568,0.25702 -0.657591,0.13617 -1.615813,-0.79375 -0.621679,-0.60331 -1.23503,-1.09694 -1.363004,-1.09694 -0.127974,0 -0.23268,-0.17859 -0.23268,-0.39687 0,-0.23066 0.240086,-0.39688 0.573265,-0.39688 0.885513,0 0.450831,-0.23369 -1.260819,-0.67783 -2.347193,-0.60906 -2.512809,-0.88024 -1.601076,-2.62162 1.364866,-2.60686 5.038868,-5.4318 7.064383,-5.4318 0.9067,0 0.986663,0.60478 0.0975,0.73745 -0.661722,0.0987 -1.527233,1.53242 -1.612434,2.67094 -0.134323,1.79496 2.301155,3.13059 5.229193,2.86771 2.022393,-0.18156 2.622487,-0.59838 2.622487,-1.82152 0,-1.18372 -0.832104,-2.2579 -2.749074,-3.54887 -0.955006,-0.64313 -1.189561,-0.90571 -0.809067,-0.90571 1.434955,0 4.969738,2.5889 6.327309,4.63417 1.13192,1.70531 1.179066,2.36291 0.207394,2.89274 -0.400182,0.21821 -1.138592,0.81658 -1.640909,1.32971 -0.916294,0.93602 -1.509757,1.22034 -1.257051,0.60224 0.542438,-1.32676 0.544087,-1.30608 -0.09666,-1.21391 -0.407919,0.0587 -0.674505,0.31689 -0.775242,0.75089 -0.121741,0.52447 -0.34316,0.67906 -1.069182,0.74647 -0.503602,0.0468 -1.028753,0.19558 -1.166997,0.33072 -0.138245,0.13515 -0.47321,0.24572 -0.744369,0.24572 -0.396837,0 -0.47684,0.16775 -0.410104,0.8599 l 0.08291,0.8599 1.914178,0.005 c 1.33326,0.004 2.031567,0.12421 2.300981,0.39688 0.355468,0.35976 3.590049,11.63797 3.590049,12.51764 0,0.21171 -0.208359,0.4779 -0.463021,0.59153 -0.621545,0.27734 -15.014484,0.39998 -16.274795,0.13868 z m 7.860969,-16.93589 c 0.181075,-0.29299 -1.313762,-0.66112 -1.704345,-0.41972 -0.151445,0.0936 -0.206857,0.28101 -0.123132,0.41648 0.196649,0.31818 1.631257,0.32073 1.827477,0.003 z m 4.114347,-0.18213 c 0,-0.0572 -0.245152,-0.10398 -0.544782,-0.10398 -0.29963,0 -0.474411,0.11386 -0.3884,0.25303 0.141184,0.22844 0.933182,0.10195 0.933182,-0.14905 z"
         id="path1180" />
      <path
         style="fill:#625c59;stroke-width:8.66408"
         d="m -44.943086,175.38116 c -2.111,-0.21896 -2.317361,-0.32376 -2.176624,-1.10534 0.129722,-0.72041 2.497222,-8.80926 3.149153,-10.75947 0.294158,-0.87995 0.498996,-1.07997 1.276429,-1.24643 0.983038,-0.21048 9.501981,-0.33016 9.695923,-0.13622 0.06292,0.0629 0.473816,1.4095 0.913098,2.9924 0.439283,1.5829 1.148991,4.13935 1.577129,5.68101 0.953368,3.43293 0.980953,4.08496 0.18312,4.32829 -0.676198,0.20624 -13.001518,0.41345 -14.618228,0.24576 z m 6.853742,-16.01716 c -0.09607,-0.15544 -0.01627,-0.3805 0.177332,-0.50015 0.376817,-0.23289 0.774134,-0.0974 0.774134,0.26401 0,0.35604 -0.760683,0.54483 -0.951466,0.23614 z m -4.459263,-0.20134 c 0.458658,-0.44244 2.110914,-0.46231 1.838854,-0.0221 -0.08994,0.14552 -0.597027,0.26458 -1.126866,0.26458 -0.590121,0 -0.865962,-0.0939 -0.711988,-0.24247 z m -1.798664,-1.6163 c -2.790002,-0.43796 -3.096773,-0.92722 -1.831912,-2.9217 1.215319,-1.91636 4.108718,-4.21536 5.305229,-4.21536 0.371925,0 0.199094,0.69964 -0.312472,1.26491 -0.247153,0.27311 -0.449369,0.84764 -0.449369,1.27674 0,1.88054 1.996877,3.07949 5.159375,3.09774 2.654239,0.0153 3.836458,-0.49627 3.836458,-1.66021 0,-1.06257 -0.425836,-2.08283 -1.128056,-2.70269 -0.325453,-0.28728 -0.04466,-0.16322 0.623993,0.27569 1.924304,1.26314 3.901017,3.79107 3.461306,4.4265 -0.09852,0.14237 -0.714899,0.47491 -1.369743,0.73899 -0.979275,0.39491 -2.129956,0.49593 -6.482291,0.56913 -2.910417,0.0489 -5.976051,-0.0184 -6.812518,-0.14974 z"
         id="path1178" />
      <path
         style="fill:#4d4b4a;stroke-width:8.66408"
         d="m -43.145087,175.29976 c -1.921515,-0.0848 -3.611826,-0.27278 -3.756244,-0.41766 -0.173807,-0.17437 0.05689,-1.33679 0.682411,-3.43842 0.519742,-1.74625 1.335222,-4.48469 1.812176,-6.08542 l 0.86719,-2.91041 4.986777,-0.1323 c 2.742726,-0.0728 5.118883,-0.0962 5.280353,-0.0521 0.161467,0.0441 0.663323,1.47286 1.115237,3.175 2.327746,8.7675 2.383787,9.01953 2.064443,9.28456 -0.27595,0.22902 -8.117668,0.89383 -9.157284,0.77634 -0.220766,-0.0249 -1.973541,-0.11477 -3.895059,-0.1996 z m 9.064165,-1.10101 c 0.09777,-0.1582 0.07404,-0.39137 -0.05274,-0.51815 -0.312918,-0.31292 -1.001612,0.14259 -0.773539,0.51162 0.231127,0.37397 0.5974,0.37687 0.826281,0.007 z m -1.877632,-0.22325 c 0.08373,-0.13546 0.0437,-0.31337 -0.08895,-0.39535 -0.132646,-0.082 -0.309446,0.0289 -0.392888,0.2463 -0.164491,0.42866 0.233035,0.55163 0.481838,0.14905 z m 1.694569,-2.7709 c -0.350837,-0.77001 -1.736513,-1.0774 -2.36556,-0.52476 -0.22974,0.20183 -0.557162,0.36696 -0.727604,0.36696 -0.170442,0 -0.309896,0.11533 -0.309896,0.25628 0,0.14096 0.16655,0.19237 0.370113,0.11426 0.203562,-0.0781 0.448712,-0.0148 0.544782,0.14059 0.09607,0.15544 0.760402,0.28262 1.476298,0.28262 1.278464,0 1.296472,-0.0113 1.011867,-0.63595 z m -8.430143,-13.77909 c -0.218281,-0.0575 -1.068171,-0.17824 -1.888641,-0.26839 -0.82047,-0.0901 -1.709039,-0.32279 -1.974596,-0.51697 -0.456747,-0.33398 -0.43044,-0.43197 0.486939,-1.81364 0.951786,-1.43349 2.466832,-2.82971 3.070543,-2.82971 0.397703,0 0.391004,0.66443 -0.01323,1.31171 -0.49149,0.787 0.316642,1.46636 2.680954,2.25375 2.33308,0.77698 4.685363,0.91958 6.989333,0.42369 l 1.546096,-0.33277 -0.09285,-1.16738 c -0.0559,-0.70282 0.01323,-1.13434 0.173696,-1.08436 0.443497,0.13815 2.020083,2.63699 1.797111,2.84838 -0.70788,0.67109 -3.388521,1.07795 -7.748278,1.17601 -2.546614,0.0573 -4.808802,0.0571 -5.027083,-3.2e-4 z"
         id="path1176" />
      <path
         style="fill:#2d4a6a;stroke-width:8.66408"
         d="m -45.736836,175.02224 c -1.02089,-0.13406 -1.056286,-0.17174 -1.000451,-1.06502 0.03184,-0.50932 0.761304,-3.30729 1.621041,-6.21771 l 1.563161,-5.29166 h 5.228416 5.228418 l 0.346728,1.32291 c 0.190701,0.72761 0.53803,2.39448 0.771843,3.70417 0.233814,1.30969 0.516982,2.68134 0.629263,3.04813 0.112282,0.36678 0.15535,0.81326 0.09571,0.99219 -0.151614,0.45484 -0.843492,0.40662 -1.026991,-0.0716 -0.08376,-0.21828 -0.424307,-0.39688 -0.756764,-0.39688 -0.424106,0 -0.654005,-0.19736 -0.770482,-0.66145 -0.09131,-0.36381 -0.282811,-0.66146 -0.425559,-0.66146 -0.142748,0 -0.255757,-0.20836 -0.251129,-0.46302 0.0076,-0.42044 0.04389,-0.41614 0.394142,0.0468 0.212151,0.28042 0.46633,0.42924 0.564848,0.33073 0.304123,-0.30412 0.197739,-1.716 -0.161954,-2.1494 -0.497486,-0.59944 -0.80545,-0.50366 -0.80545,0.25048 0,0.79529 -0.402981,0.86245 -0.79375,0.13229 -0.377862,-0.70604 -0.754142,-0.66779 -1.048562,0.10659 -0.132943,0.34967 -0.368557,0.71415 -0.523589,0.80997 -0.15503,0.0958 -0.212141,0.45205 -0.12691,0.79164 0.143004,0.56977 0.0527,0.63149 -1.169826,0.79963 -1.462842,0.20119 -1.986987,0.8094 -1.195986,1.3878 0.254016,0.18574 0.603105,0.33771 0.775753,0.33771 0.172651,0 0.449019,0.16279 0.614154,0.36177 0.228531,0.27536 0.203488,0.44207 -0.10486,0.69797 -0.331825,0.27539 -0.49172,0.25781 -0.883992,-0.0972 -0.668586,-0.60506 -1.625009,-0.52485 -2.525934,0.21183 -0.515292,0.42135 -0.71034,0.77071 -0.596265,1.06798 0.143084,0.37287 0.406998,0.41336 1.691836,0.25956 1.89122,-0.22638 1.632857,-0.2274 2.652291,0.0104 1.904196,0.44417 0.941962,0.64063 -2.906376,0.5934 -2.224445,-0.0273 -4.520692,-0.11217 -5.102775,-0.18862 z m 9.657291,-0.007 c 0,-0.14552 0.304684,-0.26458 0.677074,-0.26458 0.384006,0 0.606293,0.11452 0.513551,0.26458 -0.08994,0.14552 -0.394621,0.26459 -0.677074,0.26459 -0.282453,0 -0.513551,-0.11907 -0.513551,-0.26459 z m 2.516209,-2.11235 c -0.195144,-0.31574 0.05254,-0.79806 0.409823,-0.79806 0.321945,0 0.324033,0.71612 0.0027,0.91474 -0.135467,0.0837 -0.321088,0.0312 -0.412491,-0.11668 z m 1.849416,-0.2689 c 0.08994,-0.14552 0.216027,-0.26458 0.280199,-0.26458 0.06417,0 0.116676,0.11906 0.116676,0.26458 0,0.14552 -0.12609,0.26459 -0.280199,0.26459 -0.154109,0 -0.206613,-0.11907 -0.116676,-0.26459 z m -8.625014,-15.6266 c -0.311481,-0.19257 -0.300384,-0.29971 0.06935,-0.66955 0.367223,-0.36732 0.582052,-0.39083 1.296255,-0.14186 0.470844,0.16414 1.314564,0.29843 1.87493,0.29843 0.707583,0 1.018852,0.11571 1.018852,0.37875 0,0.29493 -0.430228,0.37706 -1.944285,0.37112 -1.069356,-0.004 -2.111153,-0.1108 -2.315104,-0.23689 z m -4.204785,-0.22992 c -2.416469,-0.18383 -2.575586,-0.49625 -1.097761,-2.15537 1.130831,-1.26955 1.381132,-1.26988 1.417185,-0.002 0.02371,0.83334 0.136667,0.91073 1.662459,1.13896 0.314594,0.047 0.563451,0.31944 0.613714,0.67175 0.05322,0.37304 -0.04481,0.57495 -0.264583,0.54495 -0.192022,-0.0262 -1.240978,-0.11552 -2.331014,-0.19844 z m 9.125632,-0.0185 c -0.08994,-0.14552 -0.0672,-0.27657 0.05053,-0.29123 0.117729,-0.0147 0.809365,-0.0755 1.536969,-0.13522 0.727605,-0.0597 1.764245,-0.28282 2.303648,-0.49579 0.976953,-0.38573 1.558123,-0.17514 0.934585,0.33865 -0.345091,0.28435 -3.047267,0.84818 -4.06496,0.84818 -0.328488,0 -0.670835,-0.11907 -0.760773,-0.26459 z"
         id="path1174" />
      <path
         style="fill:#364253;stroke-width:8.66408"
         d="m -45.734275,175.02224 c -1.232017,-0.16218 -1.371391,-0.50295 -0.816166,-1.99549 l 0.392052,-1.0539 -0.05381,1.19062 c -0.05205,1.15165 -0.02851,1.19063 0.719019,1.19063 0.850196,0 0.721436,0.35134 1.890807,-5.15938 0.855425,-4.03124 1.520127,-6.07968 2.082745,-6.41849 0.369152,-0.22231 1.816973,-0.32838 4.482205,-0.32838 h 3.936921 l 0.34885,1.32291 c 0.191871,0.72761 0.540155,2.39448 0.773968,3.70417 0.233814,1.30969 0.516982,2.68134 0.629263,3.04813 0.112282,0.36678 0.15535,0.81326 0.09571,0.99219 -0.151614,0.45484 -0.843492,0.40662 -1.026991,-0.0716 -0.08376,-0.21828 -0.424307,-0.39688 -0.756764,-0.39688 -0.424106,0 -0.654005,-0.19736 -0.770482,-0.66145 -0.09131,-0.36381 -0.282811,-0.66146 -0.425559,-0.66146 -0.142748,0 -0.255757,-0.20836 -0.251129,-0.46302 0.0076,-0.42044 0.04389,-0.41614 0.394142,0.0468 0.212151,0.28042 0.46633,0.42924 0.564848,0.33073 0.304123,-0.30412 0.197739,-1.716 -0.161954,-2.1494 -0.497486,-0.59944 -0.80545,-0.50366 -0.80545,0.25048 0,0.79529 -0.402981,0.86245 -0.79375,0.13229 -0.377862,-0.70604 -0.754142,-0.66779 -1.048562,0.10659 -0.132943,0.34967 -0.368557,0.71415 -0.523589,0.80997 -0.15503,0.0958 -0.212141,0.45205 -0.12691,0.79164 0.143004,0.56977 0.0527,0.63149 -1.169826,0.79963 -1.462842,0.20119 -1.986987,0.8094 -1.195986,1.3878 0.254016,0.18574 0.603105,0.33771 0.775753,0.33771 0.172651,0 0.449019,0.16279 0.614154,0.36177 0.228531,0.27536 0.203488,0.44207 -0.10486,0.69797 -0.331825,0.27539 -0.49172,0.25781 -0.883992,-0.0972 -0.668586,-0.60506 -1.625009,-0.52485 -2.525934,0.21183 -0.515292,0.42135 -0.71034,0.77071 -0.596265,1.06798 0.143084,0.37287 0.406998,0.41336 1.691836,0.25956 1.89122,-0.22638 1.632857,-0.2274 2.652291,0.0104 1.904196,0.44417 0.941962,0.64063 -2.906376,0.5934 -2.224445,-0.0273 -4.519538,-0.11217 -5.100214,-0.18861 z m 9.65473,-0.007 c 0,-0.14552 0.304684,-0.26458 0.677074,-0.26458 0.384006,0 0.606293,0.11452 0.513551,0.26458 -0.08994,0.14552 -0.394621,0.26459 -0.677074,0.26459 -0.282453,0 -0.513551,-0.11907 -0.513551,-0.26459 z m 2.516209,-2.11235 c -0.195144,-0.31574 0.05254,-0.79806 0.409823,-0.79806 0.321945,0 0.324033,0.71612 0.0027,0.91474 -0.135467,0.0837 -0.321088,0.0312 -0.412491,-0.11668 z m 1.849416,-0.2689 c 0.08994,-0.14552 0.216027,-0.26458 0.280199,-0.26458 0.06417,0 0.116676,0.11906 0.116676,0.26458 0,0.14552 -0.12609,0.26459 -0.280199,0.26459 -0.154109,0 -0.206613,-0.11907 -0.116676,-0.26459 z m -14.419791,-0.88681 c 0,-0.24757 0.952434,-3.73535 1.419622,-5.1986 0.269668,-0.84462 0.387746,-1.00635 0.406302,-0.55654 0.01439,0.34876 -0.339709,1.77627 -0.786882,3.17225 -0.746114,2.32921 -1.039042,3.05738 -1.039042,2.58289 z m 5.794777,-14.73979 c -0.311481,-0.19257 -0.300384,-0.29971 0.06935,-0.66955 0.367223,-0.36732 0.582052,-0.39083 1.296255,-0.14186 0.470844,0.16414 1.314564,0.29843 1.87493,0.29843 0.707583,0 1.018852,0.11571 1.018852,0.37875 0,0.29493 -0.430228,0.37706 -1.944285,0.37112 -1.069356,-0.004 -2.111153,-0.1108 -2.315104,-0.23689 z m -4.204785,-0.22992 c -2.416469,-0.18383 -2.575586,-0.49625 -1.097761,-2.15537 1.130831,-1.26955 1.381132,-1.26988 1.417185,-0.002 0.02371,0.83334 0.136667,0.91073 1.662459,1.13896 0.314594,0.047 0.563451,0.31944 0.613714,0.67175 0.05322,0.37304 -0.04481,0.57495 -0.264583,0.54495 -0.192022,-0.0262 -1.240978,-0.11552 -2.331014,-0.19844 z m 9.125632,-0.0185 c -0.08994,-0.14552 -0.0672,-0.27657 0.05053,-0.29123 0.117729,-0.0147 0.809365,-0.0755 1.536969,-0.13522 0.727605,-0.0597 1.764245,-0.28282 2.303648,-0.49579 0.976953,-0.38573 1.558123,-0.17514 0.934585,0.33865 -0.345091,0.28435 -3.047267,0.84818 -4.06496,0.84818 -0.328488,0 -0.670835,-0.11907 -0.760773,-0.26459 z"
         id="path1172" />
      <path
         style="fill:#44413d;stroke-width:8.66408"
         d="m -43.091003,175.0317 c -1.309687,-0.0816 -2.199301,-0.22386 -1.976922,-0.31605 0.222383,-0.0922 1.174883,-0.12351 2.116667,-0.0696 0.941787,0.0539 2.307651,0.007 3.035255,-0.10522 1.235247,-0.18976 2.721382,0.0652 3.206268,0.5501 0.204301,0.2043 -2.566387,0.17859 -6.381268,-0.0592 z m 7.011458,-0.0162 c 0,-0.14552 0.304684,-0.26458 0.677074,-0.26458 0.384006,0 0.606293,0.11452 0.513551,0.26458 -0.08994,0.14552 -0.394621,0.26459 -0.677074,0.26459 -0.282453,0 -0.513551,-0.11907 -0.513551,-0.26459 z m -2.929456,-2.00731 c -0.229452,-0.27647 -0.647052,-0.38496 -1.223023,-0.31772 -0.703511,0.0821 -0.874604,0.009 -0.874604,-0.37393 0,-0.33138 -0.200996,-0.47604 -0.661458,-0.47604 -0.363802,0 -0.661459,-0.15059 -0.661459,-0.33464 0,-0.18406 -0.241511,-0.78526 -0.536694,-1.33601 -0.295182,-0.55074 -0.447577,-1.14429 -0.338653,-1.319 0.108921,-0.1747 0.282342,-0.91295 0.385381,-1.64055 0.10304,-0.72761 0.352192,-1.97093 0.553675,-2.76295 l 0.366332,-1.44002 2.100082,-0.35485 c 1.155047,-0.19516 3.158752,-0.32106 4.452676,-0.27976 l 2.352593,0.0751 0.345678,1.32291 c 0.190124,0.72761 0.536982,2.39448 0.770795,3.70417 0.233814,1.30969 0.516982,2.68134 0.629263,3.04813 0.112282,0.36678 0.15535,0.81326 0.09571,0.99219 -0.151614,0.45484 -0.843492,0.40662 -1.026991,-0.0716 -0.08376,-0.21828 -0.424307,-0.39688 -0.756764,-0.39688 -0.424106,0 -0.654005,-0.19736 -0.770482,-0.66145 -0.09131,-0.36381 -0.282811,-0.66146 -0.425559,-0.66146 -0.142748,0 -0.255757,-0.20836 -0.251129,-0.46302 0.0076,-0.42044 0.04389,-0.41614 0.394142,0.0468 0.212151,0.28042 0.46633,0.42924 0.564848,0.33073 0.304123,-0.30412 0.197739,-1.716 -0.161954,-2.1494 -0.497486,-0.59944 -0.80545,-0.50366 -0.80545,0.25048 0,0.79529 -0.402981,0.86245 -0.79375,0.13229 -0.377862,-0.70604 -0.754142,-0.66779 -1.048562,0.10659 -0.132943,0.34967 -0.368557,0.71415 -0.523589,0.80997 -0.15503,0.0958 -0.212141,0.45205 -0.12691,0.79164 0.143004,0.56977 0.0527,0.63149 -1.169826,0.79963 -1.462842,0.20119 -1.986987,0.8094 -1.195986,1.3878 0.254016,0.18574 0.603105,0.33771 0.775753,0.33771 0.552363,0 0.934268,0.66152 0.584076,1.01171 -0.412991,0.41299 -0.602004,0.39283 -1.018162,-0.10861 z m 5.445665,-0.10504 c -0.195144,-0.31574 0.05254,-0.79806 0.409823,-0.79806 0.321945,0 0.324033,0.71612 0.0027,0.91474 -0.135467,0.0837 -0.321088,0.0312 -0.412491,-0.11668 z m 1.849416,-0.2689 c 0.08994,-0.14552 0.216027,-0.26458 0.280199,-0.26458 0.06417,0 0.116676,0.11906 0.116676,0.26458 0,0.14552 -0.12609,0.26459 -0.280199,0.26459 -0.154109,0 -0.206613,-0.11907 -0.116676,-0.26459 z m -8.625014,-15.6266 c -0.311481,-0.19257 -0.300384,-0.29971 0.06935,-0.66955 0.367223,-0.36732 0.582052,-0.39083 1.296255,-0.14186 0.470844,0.16414 1.314564,0.29843 1.87493,0.29843 0.707583,0 1.018852,0.11571 1.018852,0.37875 0,0.29493 -0.430228,0.37706 -1.944285,0.37112 -1.069356,-0.004 -2.111153,-0.1108 -2.315104,-0.23689 z m -3.016652,-0.31265 c -0.436563,-0.1499 -0.972344,-0.33312 -1.190625,-0.40716 -0.218282,-0.074 0.118996,-0.24535 0.749509,-0.38067 1.379995,-0.2962 1.896324,-0.13849 1.896324,0.5792 0,0.58629 -0.25065,0.62223 -1.455208,0.20863 z m 7.937499,0.0642 c -0.08994,-0.14552 -0.0672,-0.27657 0.05053,-0.29123 0.117729,-0.0147 0.809365,-0.0755 1.536969,-0.13522 0.727605,-0.0597 1.764245,-0.28282 2.303648,-0.49579 0.976953,-0.38573 1.558123,-0.17514 0.934585,0.33865 -0.345091,0.28435 -3.047267,0.84818 -4.06496,0.84818 -0.328488,0 -0.670835,-0.11907 -0.760773,-0.26459 z m -10.980208,-0.57794 c 0,-0.36202 1.641539,-2.57747 1.91823,-2.58888 0.340706,-0.014 0.2169,0.48425 -0.175483,0.70628 -0.205655,0.11637 -0.414014,0.55593 -0.463021,0.97679 -0.05868,0.50398 -0.292335,0.83979 -0.684413,0.98367 -0.393023,0.14422 -0.595313,0.11776 -0.595313,-0.0779 z"
         id="path1170" />
      <path
         style="fill:#413e3c;stroke-width:8.66408"
         d="m -39.519128,175.01555 c 0,-0.14552 0.231098,-0.26458 0.513551,-0.26458 0.282453,0 0.587137,0.11906 0.677074,0.26458 0.09274,0.15006 -0.129545,0.26459 -0.513551,0.26459 -0.372391,0 -0.677074,-0.11907 -0.677074,-0.26459 z m -5.511885,-0.27358 c 0.275709,-0.1609 0.970516,-0.16949 1.852084,-0.0229 l 1.410843,0.23461 -1.852084,0.0229 c -1.3179,0.0163 -1.724818,-0.0514 -1.410843,-0.23462 z m 3.329072,-2.82634 c -0.400182,-0.0606 -0.727604,-0.25291 -0.727604,-0.4273 0,-0.17439 -0.241511,-0.76768 -0.536694,-1.31843 -0.295182,-0.55074 -0.447577,-1.14429 -0.338653,-1.319 0.108921,-0.1747 0.282342,-0.91295 0.385381,-1.64055 0.226063,-1.59633 0.823844,-3.99395 1.052888,-4.223 0.09113,-0.0911 1.996051,-0.27017 4.233156,-0.39788 3.026635,-0.17277 4.141714,-0.1529 4.357624,0.0777 0.368814,0.39385 1.005695,3.33553 0.772615,3.56861 -0.09624,0.0962 -0.761693,0.18646 -1.478777,0.20048 -1.429573,0.0279 -1.850162,-0.53389 -0.629094,-0.84036 0.79838,-0.20038 0.786974,-0.99199 -0.01593,-1.10636 -0.36049,-0.0513 -0.629944,0.15718 -0.854702,0.66146 -0.180534,0.40504 -0.930831,1.38842 -1.66733,2.18527 -1.0194,1.10294 -1.304095,1.58826 -1.192499,2.03289 0.121627,0.4846 0.02257,0.59833 -0.581631,0.66784 -0.539787,0.0621 -0.853664,0.34052 -1.213029,1.07597 -0.266645,0.5457 -0.564301,0.97435 -0.661459,0.95254 -0.09716,-0.0218 -0.504068,-0.0892 -0.90425,-0.14986 z m 8.593447,-1.71219 c 0.163531,-0.49059 0.733116,-0.57196 0.733116,-0.10473 0,0.23041 -0.188516,0.41893 -0.418923,0.41893 -0.23041,0 -0.371795,-0.14139 -0.314193,-0.3142 z m -7.204384,-13.42852 c 0,-0.13693 0.121968,-0.32435 0.271039,-0.41648 0.387511,-0.2395 1.879925,0.13131 1.70003,0.42239 -0.198064,0.32048 -1.971069,0.31516 -1.971069,-0.006 z m 2.513541,-0.0156 c 0.08994,-0.14552 0.387594,-0.26458 0.661459,-0.26458 0.273865,0 0.571521,0.11906 0.661458,0.26458 0.09566,0.15478 -0.178845,0.26459 -0.661458,0.26459 -0.482613,0 -0.757119,-0.10981 -0.661459,-0.26459 z m -5.820833,-0.17847 c -1.215114,-0.26887 -1.28829,-0.43823 -0.269687,-0.62416 1.210038,-0.22087 1.724896,-0.0913 1.724896,0.43407 0,0.36377 -0.421482,0.41883 -1.455209,0.19009 z m -2.778125,-0.44743 c 0,-0.44941 1.826649,-2.51915 1.841069,-2.08608 0.0061,0.18191 -0.100505,0.33073 -0.236805,0.33073 -0.1363,0 -0.285128,0.37411 -0.330729,0.83135 -0.05754,0.57701 -0.265038,0.89819 -0.678222,1.04981 -0.424275,0.15569 -0.595313,0.11955 -0.595313,-0.12581 z"
         id="path1168" />
      <path
         style="fill:#2f3b49;stroke-width:8.66408"
         d="m -45.006033,174.72799 c 0.307948,-0.17932 0.846873,-0.18621 1.5875,-0.0203 l 1.12128,0.25119 -1.5875,0.0203 c -1.204907,0.0154 -1.475139,-0.0451 -1.12128,-0.25118 z m 2.576488,-3.20368 c 0,-0.19418 -0.241511,-0.80366 -0.536694,-1.35441 -0.295182,-0.55074 -0.447577,-1.14429 -0.338653,-1.319 0.108921,-0.1747 0.282342,-0.91295 0.385381,-1.64055 0.10304,-0.72761 0.353529,-1.97777 0.556647,-2.77813 0.366167,-1.44287 0.379232,-1.45672 1.540372,-1.63403 0.644088,-0.0984 2.617081,-0.18766 4.384426,-0.19844 l 3.213357,-0.0196 0.138774,0.99218 c 0.07632,0.54571 0.221773,1.31961 0.323217,1.7198 0.144431,0.56975 0.09166,0.7276 -0.243273,0.7276 -0.310542,0 -0.427721,-0.24794 -0.427721,-0.90502 0,-0.80485 -0.09463,-0.9258 -0.854987,-1.09281 -0.742913,-0.16316 -0.925,-0.0896 -1.389063,0.56131 -0.837922,1.17528 -2.06153,2.23027 -2.586723,2.23027 -0.545316,0 -1.763813,0.72209 -2.226225,1.31928 -0.273685,0.35345 -0.662654,2.05682 -0.725852,3.17864 -0.02815,0.49968 -1.212983,0.70766 -1.212983,0.21292 z m 2.645834,-15.02129 c 0,-0.14095 0.178593,-0.18774 0.396875,-0.10398 0.218281,0.0838 0.396875,0.19909 0.396875,0.25628 0,0.0572 -0.178594,0.10398 -0.396875,0.10398 -0.218282,0 -0.396875,-0.11532 -0.396875,-0.25628 z m -6.613269,-0.34755 c 7.23e-4,-0.17722 0.300128,-0.6794 0.665348,-1.11596 l 0.664033,-0.79375 -0.07003,0.8975 c -0.05098,0.65331 -0.232006,0.95693 -0.665348,1.11595 -0.4112,0.1509 -0.594905,0.11881 -0.593998,-0.10374 z m 1.716752,0.0719 c -0.103492,-0.16745 0.286194,-0.2503 1.042718,-0.22168 0.664381,0.0251 1.207965,0.14545 1.207965,0.26738 0,0.31683 -2.052378,0.27517 -2.250683,-0.0457 z"
         id="path1166" />
      <path
         style="fill:#363638;stroke-width:8.66408"
         d="m -40.339072,167.40878 c -0.01439,-0.10914 -0.06946,-1.00658 -0.122343,-1.99432 -0.143169,-2.67405 0.08807,-2.83432 4.089495,-2.83432 h 3.147211 l 0.138774,0.99218 c 0.07632,0.54571 0.221773,1.31961 0.323217,1.7198 0.144431,0.56975 0.09166,0.7276 -0.243273,0.7276 -0.310542,0 -0.427721,-0.24794 -0.427721,-0.90502 0,-0.80485 -0.09463,-0.9258 -0.854987,-1.09281 -0.742913,-0.16316 -0.925,-0.0896 -1.389063,0.56131 -0.862899,1.21031 -2.06657,2.22963 -2.64356,2.23868 -0.294992,0.005 -0.767464,0.18323 -1.049938,0.39688 -0.563256,0.42603 -0.927227,0.49749 -0.967812,0.19002 z m 0.555361,-10.90576 c 0,-0.14095 0.178593,-0.18774 0.396875,-0.10398 0.218281,0.0838 0.396875,0.19909 0.396875,0.25628 0,0.0572 -0.178594,0.10398 -0.396875,0.10398 -0.218282,0 -0.396875,-0.11532 -0.396875,-0.25628 z m -3.175,-0.27288 c 0,-0.14552 0.119062,-0.26459 0.264583,-0.26459 0.145521,0 0.264583,0.11907 0.264583,0.26459 0,0.14552 -0.119062,0.26458 -0.264583,0.26458 -0.145521,0 -0.264583,-0.11906 -0.264583,-0.26458 z"
         id="path1164" />
    </g>
  </g>
</svg>
