<svg width="499.999" height="160.006" viewBox="0 0 132.291 42.335" xmlns="http://www.w3.org/2000/svg"><g style="stroke-width:1.00005"><path style="fill:#343a40;stroke-width:1.03725;" d="M137.457 135.29a41.815 41.815 0 0 0-2.172-.605c-.969-.237-1.33-.439-2.306-1.293-.637-.557-1.35-1.115-1.585-1.241-.368-.197-5.794-1.694-13.748-3.794-1.222-.322-3-.813-3.954-1.09-.953-.278-1.883-.505-2.066-.505-.454 0-.897.53-.897 1.075 0 .256-.13.518-.3.607-.696.364-3.595.727-5.408.676-1.822-.05-1.868-.062-1.992-.479l-.434-1.448c-.612-2.038-2.563-4.381-4.748-5.703-1.1-.666-1.465-.558-1.465.433 0 .88-.566 1.842-1.285 2.183-.5.237-.99.283-2.528.237-2.283-.069-2.794-.271-3.27-1.295l-.337-.726h-2.76c-3.926 0-11.589-.474-16.633-1.028-3.342-.367-10.598-.88-16.909-1.193-3.71-.184-7.11-.403-7.555-.486-1.357-.254-1.596-.703-1.06-1.987l.266-.636-15.907.06c-12.498.046-15.944.105-16.084.273-.238.286-2.745.287-3.256.002-.544-.304-.632-.472-.635-1.211-.002-.52.07-.676.348-.748.342-.09.34-.097-.043-.287-.334-.166-.401-.35-.446-1.21-.028-.557-.008-1.189.046-1.404l.098-.391 8.494.005c6.744.004 8.845.059 10.201.266 2.227.34 22.117.578 22.117.264 0-.14 1.018-.194 3.587-.194 2.277 0 3.587.062 3.587.17 0 .108 1.195.171 3.245.171s3.245-.063 3.245-.17c0-.105.797-.171 2.049-.171 1.252 0 2.05-.067 2.05-.171 0-.094-.231-.17-.513-.17h-.512v-6.491h.512c.282 0 .513-.077.513-.171 0-.213 2.579-.211 4.098.004.611.086 1.649.23 2.306.32.658.09 2.523.477 4.145.86 2.927.69 4.31.856 4.31.52 0-.21 1.849-.18 1.98.03.049.08.466.145.927.145 1.006 0 1.242-.302 1.177-1.51a16.216 16.216 0 0 1-.014-1.35l.028-.556h1.526c1.78 0 1.826.048 1.634 1.708-.21 1.812-.27 1.775 2.565 1.637 1.652-.08 2.477-.06 2.552.062.063.1.655.177 1.34.173 1.109-.006 1.286-.056 1.82-.512.708-.606 1.603-.672 2.415-.178.622.378 1.866.348 3.062-.074.532-.187 1.498-.254 3.692-.254h2.971l.183.47c.201.52.137 4.433-.08 4.782-.096.156-.85.214-2.8.214-2.185 0-2.9-.065-3.936-.356-.697-.196-1.445-.311-1.662-.257-.24.06-.425.016-.472-.114-.056-.156-.276-.11-.825.172-1.05.54-1.818.502-2.549-.122-.534-.457-.71-.506-1.83-.512l-1.237-.007V112.747l1.91.049 1.908.048.135.505c.091.34.067.554-.073.654-.163.116-.162.167.005.234a.38.38 0 0 1 .214.329c0 .173.22.242.777.242.744 0 .846.065 2.35 1.494 3.06 2.91 3.945 3.449 5.677 3.455 1.846.007 3.598-1.276 4.703-3.443.184-.358.394-.652.469-.652.074 0 1.014-.125 2.089-.277 1.532-.217 3.332-.275 8.357-.268l6.405.009.854.936c1.072 1.174 2.677 2.34 3.867 2.81 1.316.517 4.056 1.06 5.358 1.06.843 0 1.143.064 1.218.26.055.142-.1 1.122-.343 2.177-.834 3.617-1.191 6.6-1.206 10.073-.015 3.624.12 3.375-1.55 2.848zm-43.025-11.452c.906-.228 1.438-.822 1.438-1.606 0-.593-.667-1.64-.677-1.063-.004.204-.143.299-.433.299-.342 0-.427-.085-.427-.427 0-.373-.074-.427-.594-.427-.576 0-.588.014-.415.468.227.598.072 1.424-.374 1.991-.46.585-.712.57-.401-.025.525-1.006.177-2.435-.592-2.433-1.453.003-2.698.974-2.503 1.951.135.674.59 1.122 1.314 1.293.872.206 2.807.195 3.664-.021zm-71.19-7.963a219.604 219.604 0 0 0-6.063 0c-1.667.028-.303.05 3.032.05 3.334 0 4.698-.022 3.031-.05zm-9.391-.14c-.174-.174-3.015-.24-3.414-.08-.27.108.207.159 1.561.166 1.073.006 1.906-.033 1.853-.086zm7.864-.543c-1.286-.029-3.438-.03-4.782 0-1.344.029-.292.052 2.338.053 2.63 0 3.73-.024 2.444-.053zm3.402.024c-.057-.056-.204-.062-.327-.013-.136.054-.096.095.103.103.18.007.28-.033.224-.09zm19.858-.334c0-.24-.892-.26-8.753-.193-5.056.044-9.041.148-9.436.248-.487.123 2.025.178 8.753.192 8.457.018 9.436-.008 9.436-.247zm46.133-.88c.291-.291-27.786-.322-28.137-.03-.171.142-.234.143-.234.001 0-.135-.958-.191-3.24-.191-2.675 0-3.224.04-3.15.234.126.326 34.434.311 34.76-.015zm6.128.125c0-.073-1.123-.103-2.497-.065-1.85.052-2.57.013-2.775-.148-.247-.193-.252-.184-.046.08.203.259.554.294 2.775.282 1.399-.008 2.543-.075 2.543-.149zM55.521 114a7.445 7.445 0 0 0-1.28 0c-.353.036-.065.067.64.067.704 0 .992-.03.64-.067zm-27.238-.68a3.076 3.076 0 0 0-.854-.002c-.26.039-.088.072.382.073.47.001.682-.03.472-.071zm6.839-.006c-1.145-.03-3.067-.03-4.27 0-1.203.029-.266.053 2.082.053 2.349 0 3.333-.024 2.188-.053zm-11.368-.171a193.478 193.478 0 0 0-5.721 0c-1.573.028-.286.05 2.86.05 3.148 0 4.435-.022 2.861-.05zm68.188-1.505v-.93H90.59c-.856 0-1.376.072-1.417.194-.048.144-.618.144-2.238 0-3.086-.275-2.808-.347-2.876.743l-.059.937 3.843.045c2.113.025 3.9.022 3.97-.007.071-.029.129-.47.129-.982zm-10.222.083c.033-.48.021-.937-.026-1.014-.152-.245-1.544-.051-4.785.667-1.74.386-3.444.7-3.786.7-.343 0-.751.05-.908.11-.739.284.48.385 4.803.398l4.643.014.06-.875zm-10.742.582a.659.659 0 0 0-.427 0c-.118.048-.022.086.213.086s.331-.038.214-.086z" transform="matrix(.96499 0 0 .9632 -5.67 -97.742)"/><path style="fill:#6c757d;stroke-width:1.03725;" d="M139.008 141.302c.014-.124-.073-.291-.503-.964a4.81 4.81 0 0 1-.329-.59 1.913 1.913 0 0 0-.116-.224.448.448 0 0 1-.08-.328.508.508 0 0 0-.046-.283c-.041-.076-.055-.168-.048-.313.007-.154-.004-.222-.044-.27-.037-.043-.054-.115-.053-.227a.47.47 0 0 0-.068-.274c-.038-.06-.061-.116-.052-.123a.631.631 0 0 0 .035-.17c.012-.108.003-.175-.03-.213-.036-.042-.037-.097-.005-.237a.492.492 0 0 0-.005-.312.497.497 0 0 1-.004-.314.566.566 0 0 0 0-.317.548.548 0 0 1-.008-.283.634.634 0 0 0 .007-.248c-.02-.074-.006-.143.057-.284.097-.217.106-.258.092-.403a.708.708 0 0 1 .048-.26.742.742 0 0 0 .044-.299.634.634 0 0 1 .067-.331.576.576 0 0 0 .062-.325c-.01-.084-.001-.155.022-.175.088-.075.197-.323.206-.468a.483.483 0 0 1 .085-.257.48.48 0 0 0 .083-.29c.007-.164.02-.199.122-.327.132-.165.165-.234.201-.422.02-.1.048-.155.109-.207a.427.427 0 0 0 .15-.33.427.427 0 0 1 .13-.312c.039-.033.076-.117.1-.23.03-.136.074-.223.193-.387.283-.388.283-.388.213-.44-.05-.038-.054-.056-.026-.097.028-.04.038-.04.051-.002.031.087.044.094.1.052.063-.047.414-.583.562-.86.055-.1.126-.262.159-.358.058-.17.093-.436.062-.472-.008-.01-.013-.045-.01-.077.007-.103-.277-.363-.304-.278-.006.018-.012.017-.016-.005-.008-.05-.123-.092-.137-.05-.007.022-.013.02-.017-.002-.007-.048-.182-.11-.195-.069-.005.017-.012.017-.015 0-.006-.04-.254-.095-.26-.057-.001.017-.006.013-.01-.01-.005-.024-.055-.044-.128-.05a.523.523 0 0 1-.128-.019c-.027-.03-.207-.05-.217-.022-.006.018-.012.02-.011.002 0-.045-.109-.078-.124-.037-.007.02-.012.023-.012.007.001-.043-.108-.078-.121-.038-.006.019-.013.02-.016.002-.006-.037-.233-.106-.263-.08-.011.01-.03.007-.043-.009-.068-.08-.486 0-.571.11-.063.079-.198.116-.309.084-.043-.013-.083-.008-.089.01-.006.018-.013.018-.015 0-.006-.041-.18-.052-.182-.012-.001.017-.008.017-.015.002-.016-.038-.46-.1-.471-.066-.005.015-.013.017-.018.004-.03-.07-.37-.187-.387-.133-.006.018-.013.019-.015 0-.007-.042-.218-.054-.223-.012-.002.017-.007.016-.01-.003-.009-.044-.298-.065-.303-.023-.002.018-.007.016-.01-.003-.009-.043-.18-.054-.186-.011-.002.017-.007.016-.01-.004-.009-.044-.22-.058-.225-.016-.002.018-.007.016-.011-.004-.008-.043-.14-.05-.146-.008-.002.017-.007.013-.012-.01-.009-.05-.107-.07-.12-.026-.007.018-.014.017-.017-.003-.003-.019-.042-.033-.087-.031a.313.313 0 0 1-.128-.022c-.025-.014-.055-.017-.067-.006-.012.01-.034.005-.049-.013s-.034-.026-.043-.019c-.009.01-.058.001-.11-.013-.052-.014-.098-.013-.104.003-.005.017-.011.016-.014-.003-.003-.017-.041-.036-.085-.041-.044-.005-.088-.019-.097-.03-.01-.011-.037-.018-.06-.015-.043.007-.128-.02-.298-.094-.058-.025-.113-.04-.122-.032-.01.009-.035-.005-.058-.028a.227.227 0 0 0-.099-.053 1.195 1.195 0 0 1-.3-.131 11.481 11.481 0 0 0-.314-.19 3.535 3.535 0 0 1-.34-.22 2.47 2.47 0 0 0-.156-.123c-.24-.17-.692-.652-1.055-1.125-.186-.243-.307-.36-.322-.313-.005.014-.02.003-.033-.026a.122.122 0 0 0-.079-.06c-.03-.006-.047-.015-.04-.022.009-.008-.026-.028-.076-.048-.13-.052-.417-.082-.429-.043-.006.018-.012.017-.015 0-.006-.042-.14-.048-.143-.008-.001.017-.007.017-.014.002-.017-.042-.325-.042-.339.001-.007.022-.014.023-.017.003-.006-.041-.317-.039-.322.002-.002.016-.007.014-.01-.005-.008-.043-.141-.05-.146-.008-.002.017-.007.015-.01-.004-.01-.048-.148-.049-.163-.003-.007.023-.014.025-.017.003-.007-.044-.227-.043-.24.001-.007.018-.014.018-.017 0-.006-.036-.257-.034-.278 0-.007.012-.015.009-.017-.008-.006-.039-.286-.028-.298.012-.005.017-.016.02-.023.007-.018-.038-.401-.032-.414.007-.006.019-.013.018-.016-.001-.003-.02-.063-.031-.135-.027a1.01 1.01 0 0 1-.173.002c-.115-.018-.356.003-.366.033-.006.018-.013.018-.015 0-.007-.044-.185-.05-.199-.007-.006.018-.016.022-.022.009-.019-.04-.362-.036-.375.005-.007.02-.013.022-.016.003-.007-.047-.146-.046-.161.002-.007.023-.014.024-.018.003-.007-.044-.365-.033-.379.01-.006.018-.012.017-.015 0-.003-.02-.067-.034-.141-.033l-.198-.001c-.143-.007-.288.016-.297.045-.005.017-.012.015-.015-.004-.006-.041-.278-.037-.282.004 0 .015-.008.014-.015-.001-.019-.04-.187-.041-.2 0-.006.017-.013.016-.016-.002-.007-.046-.402-.043-.417.003-.007.023-.014.023-.017 0-.006-.038-.211-.034-.237.004-.008.013-.017.01-.02-.009-.005-.032-.136-.018-.16.018-.007.011-.015.004-.018-.012-.005-.032-.136-.018-.16.018-.006.011-.015.006-.017-.01-.006-.037-.14-.04-.142-.002-.001.016-.008.016-.015 0-.018-.041-.326-.035-.339.006-.006.018-.013.018-.016 0-.006-.039-.14-.049-.142-.01-.001.014-.01.016-.021.003-.032-.036-.637-.018-.65.02-.005.02-.013.02-.016 0-.007-.044-.265-.047-.279-.002-.006.02-.013.019-.016-.001-.003-.02-.063-.032-.136-.027a2.637 2.637 0 0 1-.282.002c-.084-.004-.161.008-.171.027-.01.019-.021.022-.024.006-.006-.037-.139-.039-.142-.002 0 .016-.009.016-.017 0-.018-.04-.362-.038-.374.001-.005.016-.014.018-.02.004-.016-.039-.284-.03-.297.01-.007.022-.014.023-.017.003-.007-.046-.146-.045-.16.002-.007.023-.015.025-.018.004-.006-.04-.317-.038-.322.002-.002.016-.007.013-.011-.01-.004-.022-.042-.033-.09-.027-.046.006-.155.008-.242.006-.086-.003-.161.008-.167.025-.005.017-.012.016-.015-.003-.007-.044-.285-.033-.3.012-.006.02-.013.021-.016.002-.004-.027-.341-.048-.371-.022a1.178 1.178 0 0 1-.17-.004c-.096-.007-.164.002-.171.024-.007.023-.014.024-.018 0-.006-.035-.135-.024-.16.014-.007.011-.016.007-.018-.011-.006-.039-.356-.036-.36.003-.003.016-.008.014-.011-.005-.007-.037-.258-.038-.28 0-.008.01-.015.006-.018-.01-.002-.016-.079-.025-.17-.02a6.45 6.45 0 0 1-.345.007.833.833 0 0 0-.182.009.57.57 0 0 1-.153.003c-.44-.022-.826-.014-.856.017-.015.016-.029.016-.03.002-.008-.04-.324-.025-.338.019-.007.022-.014.023-.017.003-.007-.044-.226-.044-.24 0-.006.02-.013.018-.016-.002-.006-.037-.211-.035-.236.002-.008.012-.019.01-.024-.002-.016-.035-.325-.023-.336.014-.006.018-.013.018-.016-.001-.005-.03-.273-.042-.284-.012-.002.007-.005.004-.006-.001-.003-.018-.134-.034-.152-.019a.674.674 0 0 1-.177.006c-.09-.004-.167.008-.173.025-.006.018-.012.017-.015 0-.006-.038-.178-.027-.203.012-.008.013-.015.012-.014-.002.003-.042-.11-.042-.122 0-.007.021-.014.022-.017 0-.007-.042-.149-.033-.163.01-.005.018-.012.015-.015-.005-.003-.02-.045-.03-.096-.024-.09.011-.188.011-.383 0-.063-.005-.107.008-.115.033-.008.025-.014.026-.018.004-.007-.045-.27-.04-.294.005-.01.019-.02.02-.023.003-.007-.046-.14.028-.158.088-.008.028 0 .065.017.082.017.018.02.033.007.036-.043.008.116.37.17.388.016.006.02.016.01.024-.022.02.12.29.16.304.016.005.021.017.01.027-.018.015.018.093.114.25.016.027.059.112.095.19a.48.48 0 0 0 .093.15c.014.004.014.017 0 .029-.014.013-.004.035.023.054.026.018.036.035.022.037-.014.002-.014.04 0 .086a.572.572 0 0 1 .017.193c-.006.06 0 .114.016.119.015.005.017.013.004.018-.013.006-.036.08-.052.167-.057.304-.248.72-.383.836-.036.03-.054.058-.041.063.013.004-.093.096-.234.204-.142.109-.262.21-.267.225-.005.016-.012.01-.015-.014-.005-.031-.018-.028-.053.016-.026.032-.048.047-.05.033-.003-.021-.149.02-.182.053-.007.009-.025.009-.04.005-.07-.018-.23.006-.24.035-.006.019-.013.017-.016-.006-.005-.034-.042-.023-.08.023-.009.01-.017.003-.02-.012-.002-.016-.057-.024-.12-.017-.065.007-.124.005-.133-.006-.008-.01-.025-.002-.036.02-.014.026-.025.025-.035-.002-.008-.022-.024-.032-.035-.023a.565.565 0 0 1-.192.002c-.094-.008-.176-.003-.181.015-.005.016-.012.016-.014 0-.007-.043-.176-.09-.181-.051-.002.017-.007.015-.011-.006-.004-.02-.041-.054-.083-.076a1.403 1.403 0 0 1-.249-.157c-.068-.049-.124-.08-.125-.07 0 .01-.045-.03-.1-.088-.168-.182-.54-.527-.603-.56-.045-.024-.052-.034-.024-.039.026-.004.024-.013-.005-.029a1.208 1.208 0 0 1-.18-.225 17.087 17.087 0 0 0-.507-.674c-.749-.954-1.434-1.842-1.65-2.139-.253-.349-.886-1.127-.918-1.13a.426.426 0 0 1-.108-.085c-.047-.046-.097-.078-.112-.072-.015.004-.029-.001-.031-.016-.007-.048-.142-.105-.154-.067-.007.023-.014.022-.018-.003-.009-.06-.462-.176-.469-.12-.002.015-.007.013-.01-.006-.009-.047-.147-.079-.16-.037-.007.019-.014.02-.016 0-.007-.041-.14-.047-.145-.006-.002.017-.007.016-.01-.004-.008-.043-.18-.054-.186-.011-.002.017-.007.014-.01-.008-.005-.023-.045-.033-.099-.026-.127.017-.212.02-.308.007-.045-.006-.087.004-.092.02-.006.018-.012.016-.016-.004a.035.035 0 0 0-.04-.03c-.042.008-.056-.085-.048-.31a.592.592 0 0 0-.194-.474c-.135-.129-.205-.185-.247-.198a.289.289 0 0 1-.075-.042.903.903 0 0 0-.12-.072c-.223-.113-.252-.165-.248-.442.003-.186.018-.261.065-.315l.13-.152c.038-.044.095-.134.127-.2.062-.13.12-.168.24-.163.042.002.08-.01.084-.025.005-.015.014-.017.019-.004.005.013.039.033.074.046.086.032.242.208.209.236-.017.015.142.325.208.405a.294.294 0 0 0 .1.074c.041.016.047.024.022.028-.022.003-.018.025.01.06.026.03.056.046.067.036.012-.01.027 0 .035.021.014.04.352.08.53.063.238-.022.384-.123.42-.292.032-.145.095-.202.227-.203.089 0 .115.015.201.116.055.064.097.127.094.14-.008.035.097.102.108.07.005-.016.015-.01.023.014.02.055.088.036.327-.092.253-.136.46-.189.57-.145.075.031.082.04.074.102-.01.07.06.375.096.415.01.013.025.008.031-.012.007-.023.014-.022.017 0 .003.02.03.046.06.056.029.01.046.011.038 0-.008-.01.008-.02.036-.02.029 0 .063-.013.076-.03.056-.068.483-.28.553-.275.04.003.059.023.08.084.016.044.046.089.065.1.02.01.023.02.006.023-.016.002-.005.046.025.096.03.05.072.131.093.18a.273.273 0 0 0 .078.109c.025.013.026.023.003.027-.026.004-.012.025.05.074.047.038.1.067.117.064.018-.002.037.002.042.01.03.046.047.05.1.025.067-.033.153-.214.183-.384.06-.344.139-1.715.118-2.065a5.754 5.754 0 0 1-.007-.415 7.6 7.6 0 0 0-.036-.826c-.01-.134-.019-.26-.019-.28a1.062 1.062 0 0 0-.04-.279.204.204 0 0 1-.016-.088c.004-.085-.095-.156-.183-.132-.063.017-.092.044-.162.152a.836.836 0 0 0-.093.173c-.012.07-.15.272-.157.23-.004-.024-.014-.022-.03.009-.014.025-.026.032-.029.015-.005-.033-.212-.027-.234.007-.007.011-.02 0-.028-.022-.008-.023-.034-.034-.06-.025-.025.01-.047.003-.049-.011-.002-.015-.049-.06-.104-.1a2.904 2.904 0 0 1-.161-.124.297.297 0 0 0-.114-.061c-.077-.014-.181.121-.23.296-.065.237-.12.327-.2.335-.038.003-.07.02-.072.036-.002.016-.007.013-.011-.009-.004-.02-.043-.035-.088-.034-.044.002-.094-.012-.111-.027a.902.902 0 0 0-.12-.08 1.418 1.418 0 0 1-.208-.132.42.42 0 0 0-.12-.056c-.069-.02-.084-.013-.162.077-.192.223-.28.318-.28.301.003-.021-.157-.018-.183.004-.01.01-.059 0-.108-.017-.05-.018-.082-.04-.073-.048.028-.023-.085-.23-.156-.289-.083-.067-.207-.104-.22-.064-.004.017-.017.015-.027-.002-.01-.018-.034-.018-.052 0-.019.02-.04.022-.048.01-.008-.015-.056-.017-.107-.006a.429.429 0 0 1-.118.015c-.088-.02-.488.272-.504.368-.005.03-.015.047-.022.04-.007-.009-.026.025-.043.075-.017.05-.023.092-.013.096.01.003-.002.024-.025.048a.607.607 0 0 0-.084.122c-.039.074-.193.24-.19.204.002-.022-.286 0-.3.024-.007.01-.02.004-.03-.013-.009-.017-.027-.017-.04-.002-.013.016-.025.017-.028 0-.003-.016-.029-.029-.058-.029-.03 0-.049.007-.043.014.006.008-.042.008-.108 0a.372.372 0 0 1-.137-.031c-.009-.01-.02-.006-.026.01-.014.044-.101-.103-.11-.183-.006-.068.023-.274.082-.578.063-.329.06-.508-.01-.646-.05-.096-.08-.134-.114-.14-.026-.004-.047-.017-.046-.03.003-.04-.196-.122-.208-.084-.007.022-.014.023-.017.001-.003-.02-.04-.032-.082-.028-.042.003-.075 0-.074-.011.001-.01-.045-.015-.104-.01-.172.012-.214-.085-.186-.427.007-.084.032-.166.06-.189a.568.568 0 0 0 .1-.161c.064-.147.032-.279-.113-.463-.1-.128-.28-.24-.298-.186-.005.014-.014.008-.022-.013-.017-.049-.353-.098-.368-.054-.006.019-.013.018-.016-.002-.007-.043-.248-.022-.262.022-.005.017-.012.015-.015-.005-.008-.048-.202-.032-.389.032-.3.103-.585.46-.528.66a.582.582 0 0 0 .102.166c.11.128.128.225.093.503-.04.322-.056.351-.204.374-.103.016-.156.047-.35.204-.502.405-1.71 1.41-2.116 1.762-.425.367-.547.446-.602.388-.107-.114-.334-.253-.347-.212-.005.015-.015.01-.023-.013-.008-.022-.042-.041-.075-.044-.034-.002-.068-.012-.077-.022-.032-.034-.182-.043-.192-.012-.006.018-.018.02-.027.002-.025-.047-.294-.023-.474.043-.165.06-.221.106-.52.43-.085.09-.117.112-.163.104-.031-.005-.07.002-.087.016-.017.015-.033.013-.035-.003-.007-.043-.324-.03-.338.015-.007.023-.014.023-.018 0-.006-.039-.428-.032-.454.008-.008.013-.016.01-.019-.008-.005-.034-.351-.02-.375.015-.008.013-.017.01-.02-.008-.002-.017-.066-.025-.142-.017a2.098 2.098 0 0 1-.308.001c-.106-.008-.175.002-.183.025-.007.023-.014.025-.017.004-.007-.041-.14-.047-.145-.006-.002.017-.007.015-.01-.004-.009-.045-.147-.05-.161-.005-.006.019-.016.023-.022.01-.015-.034-.232-.029-.273.006-.02.016-.145.24-.281.498-.203.385-.265.483-.35.547-.058.043-.106.069-.108.057-.004-.028-.315-.001-.335.029-.008.013-.016.01-.02-.01-.005-.033-.312-.015-.335.02-.008.013-.017.012-.02-.004-.004-.03-.088-.035-.233-.015a.517.517 0 0 1-.154-.002c-.034-.01-.07.002-.082.024-.011.02-.023.024-.025.009-.006-.04-.188-.03-.2.01-.006.018-.013.018-.016 0-.007-.047-.224-.053-.239-.006-.007.024-.014.025-.017.003-.007-.044-.188-.039-.202.005-.005.018-.012.017-.015-.004-.006-.036-.136-.025-.16.013-.008.012-.016.007-.018-.009-.007-.046-.15-.069-.172-.027-.011.02-.022.024-.025.009-.006-.037-.398.004-.403.042-.002.016-.007.011-.01-.01-.009-.043-.213-.037-.242.006-.01.015-.016.015-.015 0 .002-.031-.181-.032-.2 0-.007.01-.016.01-.02-.003-.016-.038-.363-.034-.376.004-.007.023-.014.024-.017 0-.006-.037-.212-.034-.237.005-.008.012-.017.01-.02-.005-.006-.04-.207-.021-.22.022-.007.02-.014.02-.017 0-.006-.038-.212-.035-.237.004-.009.012-.017.01-.02-.006-.005-.033-.258-.028-.278.006-.007.011-.014.009-.017-.005-.002-.015-.102-.024-.222-.022-.12.003-.26.004-.31.003-.051-.002-.098.013-.103.03-.006.018-.013.017-.016-.002-.006-.043-.287-.026-.3.018-.006.017-.013.016-.016-.001-.003-.019-.038-.034-.08-.035-.04-.002-.067.005-.06.013.007.009-.037.007-.1-.004-.064-.011-.12-.003-.132.018-.01.02-.022.024-.024.009-.006-.038-.277-.028-.282.011-.002.016-.007.013-.01-.008-.009-.043-.201-.034-.207.01-.002.017-.007.014-.01-.005-.01-.047-.108-.044-.124.003-.006.022-.014.024-.017.003-.006-.04-.179-.051-.182-.01 0 .016-.008.016-.015 0-.018-.04-.464-.024-.477.016-.006.018-.013.017-.016 0-.007-.046-.106-.041-.121.005-.008.024-.014.024-.018 0-.007-.046-.207-.053-.233-.007-.01.018-.021.021-.023.006-.007-.043-.186-.04-.2.003-.007.024-.014.025-.017.003-.007-.044-.226-.043-.24.001-.006.018-.013.019-.016 0-.007-.046-.146-.045-.16.002-.008.023-.015.024-.018.004-.007-.046-.107-.041-.121.005-.007.022-.014.024-.017.003-.004-.018-.057-.035-.12-.039-.062-.003-.106.003-.097.013.01.01-.016.01-.057 0-.04-.01-.078-.006-.083.01-.005.017-.017.016-.027-.001-.01-.018-.047-.024-.084-.013-.036.01-.074.009-.084-.003-.023-.026-.26-.002-.278.028-.008.012-.016.009-.018-.01-.006-.039-.2-.023-.204.016-.002.017-.007.014-.01-.004-.008-.035-.32-.023-.342.014-.006.011-.014.008-.017-.01-.006-.042-.146-.038-.16.006-.007.023-.014.024-.017.004-.006-.036-.257-.034-.279 0-.007.012-.015.007-.017-.01-.003-.016-.048-.027-.1-.024a3.914 3.914 0 0 1-.182.006c-.047-.001-.09.016-.096.033-.006.018-.013.019-.016 0-.007-.04-.179-.051-.182-.01-.001.016-.008.017-.014 0-.018-.043-.286-.038-.3.005-.007.022-.013.023-.017.002-.007-.044-.189-.03-.245.019a.73.73 0 0 1-.212.074c-.093.022-.17.05-.17.065-.002.014-.008.013-.015-.002-.015-.035-.278-.042-.28-.006-.002.013-.013.013-.025-.001-.032-.038-.222-.034-.244.005-.01.018-.022.02-.024.006-.002-.016-.038-.029-.078-.03-.041 0-.07.002-.065.009.006.007-.052.009-.128.007-.075-.003-.142.009-.147.027-.005.017-.013.015-.015-.005-.006-.038-.212-.035-.237.004-.009.013-.018.009-.02-.01-.003-.017-.043-.026-.089-.02-.045.006-.155.008-.243.006a.517.517 0 0 0-.181.013c-.012.01-.05.009-.087-.003-.038-.012-.073-.004-.086.018-.011.022-.023.026-.026.01-.006-.038-.198-.021-.203.018-.002.016-.007.013-.01-.006-.008-.037-.26-.038-.281 0-.007.01-.014.008-.017-.006-.005-.032-.571-.017-.593.016-.008.013-.017.009-.02-.01-.005-.033-.212-.028-.235.007-.007.011-.018.01-.024-.002-.015-.032-.325-.02-.335.013-.005.015-.014.014-.02 0-.018-.038-.224-.039-.237 0-.006.018-.013.018-.016 0-.007-.044-.187-.04-.2.004-.006.018-.013.018-.016 0-.004-.018-.048-.035-.1-.037-.051-.002-.09 0-.084.008.006.007-.051.009-.126.005-.076-.004-.142.008-.148.026-.006.019-.013.02-.015 0-.008-.047-.224-.052-.24-.006-.007.023-.014.025-.017.004-.007-.047-.145-.046-.16.002-.007.022-.014.024-.018.004-.006-.042-.178-.051-.183-.01-.003.017-.007.014-.011-.006-.009-.044-.15-.037-.165.008-.005.017-.012.016-.015-.001-.006-.041-.179-.052-.182-.01 0 .016-.008.018-.016.005-.02-.035-.123-.095-.14-.082-.007.007-.035-.011-.063-.04-.041-.044-.184-.077-.214-.051a.81.81 0 0 1-.154.003c-.08-.003-.153.01-.164.03-.01.019-.02.021-.023.004-.003-.016-.048-.026-.1-.023a1.291 1.291 0 0 1-.18 0c-.05-.003-.089.01-.096.033-.008.023-.015.026-.018.007-.007-.043-.266-.046-.28-.003-.006.018-.013.018-.016 0-.005-.035-.177-.028-.2.008-.006.011-.015.006-.017-.01-.006-.039-.2-.025-.203.014 0 .016-.007.016-.014 0-.018-.043-.285-.039-.3.005-.006.021-.013.023-.016.003-.007-.046-.107-.042-.122.005-.007.023-.014.023-.017 0-.006-.04-.763-.038-.789 0-.008.013-.017.01-.02-.005-.005-.04-.326-.023-.339.017-.006.018-.012.016-.015-.004-.006-.038-.212-.034-.237.004-.009.013-.018.01-.02-.009-.005-.032-.137-.018-.16.018-.007.011-.015.007-.018-.01-.006-.042-.285-.027-.299.016-.007.02-.014.021-.017 0-.007-.044-.167-.054-.18-.01-.006.017-.012.016-.015-.002-.008-.046-.146-.045-.161.002-.007.023-.014.025-.018.003-.007-.047-.401-.044-.416.003-.007.022-.014.024-.017.004-.008-.047-.185-.049-.2 0-.008.023-.014.024-.018.002-.007-.043-.187-.038-.201.005-.006.018-.013.018-.015 0-.008-.047-.185-.05-.2-.001-.008.023-.014.025-.018.003-.007-.045-.226-.043-.242.003-.007.02-.012.021-.012.003.002-.034-.162-.062-.195-.034-.01.01-.06.008-.108 0-.05-.011-.098-.003-.109.02-.011.02-.022.024-.025.009-.006-.038-.226-.036-.238.002-.005.016-.015.017-.02.004-.017-.035-.286-.024-.297.012-.005.015-.014.016-.02.003-.017-.037-.285-.023-.298.016-.005.017-.012.016-.015 0-.007-.047-.107-.042-.121.004-.008.023-.014.024-.018.002-.003-.019-.081-.032-.175-.03-.093.005-.21.005-.26.004-.05-.002-.095.01-.1.024-.005.014-.014.014-.021 0-.018-.038-.402-.028-.414.01-.006.016-.012.015-.015-.003-.008-.047-.146-.046-.16.002-.008.023-.015.024-.018.002-.006-.038-.212-.035-.237.004-.008.012-.017.01-.02-.005-.006-.043-.146-.039-.16.005-.007.023-.014.024-.017.003-.007-.045-.365-.033-.381.012-.007.02-.012.02-.011.002 0-.04-.21-.061-.223-.021-.005.017-.012.017-.015 0-.006-.043-.148-.04-.161.003-.006.02-.014.02-.017 0-.006-.039-.29-.04-.315-.003-.008.013-.017.01-.02-.009-.006-.038-.12-.017-.125.024-.003.016-.007.014-.011-.008-.008-.042-.24-.036-.246.006-.002.016-.006.014-.01-.005-.01-.049-.147-.048-.164.001-.008.022-.014.026-.013.007.001-.038-.243-.066-.283-.032-.015.013-.034.015-.043.006-.022-.025-.367-.003-.386.025-.007.011-.021.009-.03-.008-.02-.038-.239-.016-.252.026-.005.018-.012.018-.015 0-.004-.018-.048-.035-.1-.037-.051-.002-.088 0-.082.01.006.008-.033.01-.087.006-.054-.004-.103.007-.108.025-.006.017-.015.02-.021.008-.018-.04-.5-.029-.514.013-.007.022-.014.023-.017.002-.007-.042-.199-.03-.204.012-.003.016-.008.012-.012-.01-.007-.04-.211-.038-.238.003-.008.012-.017.01-.02-.004-.002-.015-.074-.024-.16-.02a6.009 6.009 0 0 1-.332.004.564.564 0 0 0-.207.022c-.017.013-.03.013-.028 0 .003-.036-.33-.025-.342.011-.006.017-.012.016-.015-.003-.007-.044-.246-.03-.26.016-.008.022-.015.022-.018-.003-.008-.047-.167-.05-.194-.004-.01.018-.021.02-.023.004-.006-.038-.14-.039-.144-.002-.002.017-.008.014-.011-.008-.007-.037-.136-.029-.162.011-.007.012-.015.006-.018-.01-.004-.03-.305-.036-.339-.007-.01.01-.047.006-.083-.005-.038-.012-.074-.004-.086.018-.012.022-.023.027-.026.012-.005-.033-.137-.041-.144-.01-.003.013-.006.014-.007.001-.002-.035-.156-.027-.167.008-.006.018-.013.018-.015 0-.008-.044-.149-.04-.164.005-.007.02-.013.022-.012.004.001-.032-.122-.06-.151-.035a.446.446 0 0 1-.156.003c-.087-.007-.145.004-.154.028-.008.02-.013.024-.012.008 0-.036-.163-.062-.199-.031-.012.01-.052.01-.088-.001-.038-.012-.073-.004-.086.018-.011.021-.023.026-.026.01-.005-.038-.138-.038-.143-.002-.002.017-.007.016-.01-.003-.01-.044-.21-.03-.224.016-.006.02-.014.02-.017 0-.006-.042-.266-.041-.28.002-.005.016-.012.014-.015-.005-.006-.038-.211-.035-.237.004-.008.012-.017.01-.02-.006-.006-.04-.838-.027-.851.014-.006.02-.013.02-.016 0-.007-.043-.187-.038-.201.005-.006.018-.013.017-.016-.003-.003-.019-.055-.03-.116-.024a.672.672 0 0 1-.172-.004c-.034-.009-.071.002-.083.023-.012.023-.022.024-.025.004-.007-.04-.128-.037-.141.004-.005.016-.012.013-.015-.008-.005-.035-.135-.024-.16.014-.007.011-.016.004-.018-.012-.005-.033-.137-.018-.16.017-.007.012-.015.006-.018-.01-.006-.04-.149-.027-.162.014-.005.017-.012.015-.015-.004-.007-.043-.267-.042-.28 0-.006.018-.013.016-.015-.003-.008-.046-.285-.034-.3.013-.007.021-.014.022-.017.002-.007-.045-.265-.048-.279-.003-.006.019-.013.019-.016 0-.008-.046-.265-.048-.281-.002-.007.02-.013.022-.012.004 0-.03-.122-.06-.15-.035a.502.502 0 0 1-.157.006c-.078-.004-.147.008-.153.026-.006.019-.013.018-.015 0-.006-.031-.21-.048-.244-.021a1.143 1.143 0 0 1-.238.005c-.123-.005-.228.006-.233.023-.005.016-.012.014-.015-.005-.007-.043-.148-.034-.162.01-.006.017-.013.014-.016-.005-.006-.038-.136-.024-.163.017-.008.014-.015.012-.013-.003.003-.043-.148-.049-.161-.004-.007.023-.015.025-.018.004-.007-.042-.14-.047-.144-.006-.002.017-.008.014-.011-.008-.008-.044-.15-.037-.164.008-.006.017-.012.016-.015-.004-.007-.04-.239-.032-.244.01-.002.015-.007.012-.01-.01-.005-.023-.058-.035-.128-.031a2.51 2.51 0 0 1-.257 0c-.197-.01-.33.007-.334.04-.003.016-.008.013-.01-.008-.004-.02-.05-.034-.104-.031a6.53 6.53 0 0 1-.276.005.53.53 0 0 0-.193.02c-.007.011-.018.011-.024-.001-.017-.039-.244-.024-.258.017-.008.021-.013.025-.013.008.002-.035-.163-.06-.198-.03-.013.01-.052.01-.088-.002-.038-.012-.074-.004-.086.018-.012.022-.023.027-.026.012-.007-.044-.224-.045-.238-.001-.008.024-.014.025-.017.002-.007-.038-.212-.035-.237.004-.01.013-.018.009-.02-.01-.006-.039-.149-.026-.162.015-.005.017-.012.015-.015-.005-.007-.042-.149-.033-.163.01-.005.017-.012.016-.015 0-.008-.047-.146-.046-.16.001-.009.023-.015.025-.018.003-.007-.042-.267-.041-.28.001-.006.017-.012.017-.015 0-.007-.048-.263-.057-.278-.01-.007.024-.015.026-.018.008-.008-.047-.184-.05-.2-.001-.006.022-.014.025-.017.007-.003-.018-.056-.035-.119-.04-.062-.002-.106.004-.097.015.01.01-.016.01-.057 0-.04-.011-.078-.006-.083.01-.006.017-.014.02-.02.005-.016-.038-.364-.031-.376.007-.006.019-.013.018-.016 0-.007-.042-.278-.037-.283.005-.002.017-.008.014-.01-.004-.01-.047-.148-.048-.163-.003-.007.022-.014.025-.017.004-.003-.018-.047-.034-.1-.037-.05-.002-.086.004-.077.015.009.01-.017.01-.057 0s-.079-.004-.085.016c-.006.02-.013.019-.016 0-.007-.042-.277-.037-.283.006 0 .016-.007.013-.01-.01-.008-.043-.2-.033-.206.011-.001.016-.007.014-.01-.005-.01-.048-.148-.049-.163-.003-.007.023-.014.024-.017.003-.007-.044-.226-.043-.24 0-.006.02-.013.019-.017 0-.007-.043-.266-.042-.28 0-.006.018-.012.016-.015-.003-.007-.046-.106-.041-.121.005-.007.021-.014.023-.017.003-.007-.042-.179-.051-.184-.01-.001.018-.007.016-.01-.003-.008-.029-.264-.045-.299-.02a1.08 1.08 0 0 1-.168-.004c-.095-.007-.162.002-.17.024-.006.023-.013.024-.017.002-.003-.02-.045-.03-.096-.023a.906.906 0 0 1-.212-.006c-.07-.01-.13-.001-.141.02-.01.02-.022.024-.024.009-.007-.043-.146-.037-.16.006-.007.022-.014.024-.017.006-.007-.042-.179-.051-.184-.01 0 .017-.007.015-.01-.005-.01-.048-.108-.045-.124.003-.007.022-.014.023-.017.003-.007-.045-.226-.044-.24 0-.006.02-.013.018-.016-.002-.006-.038-.212-.034-.237.004-.01.013-.017.01-.02-.008-.006-.04-.187-.032-.2.01-.006.019-.013.017-.016-.003-.007-.042-.15-.033-.163.01-.005.018-.012.016-.015 0-.007-.042-.14-.048-.145-.006 0 .017-.008.015-.01-.005-.01-.048-.147-.05-.162-.003-.008.022-.015.024-.018.004-.008-.053-.65-.058-.656-.005-.001.016-.008.012-.011-.01-.007-.038-.136-.029-.162.01-.008.012-.016.005-.018-.01-.006-.035-.212-.03-.235.005-.01.012-.021.01-.03-.008-.008-.016-.067-.023-.13-.017-.062.007-.105.005-.095-.005.01-.009-.024-.011-.078-.004-.053.008-.101.025-.106.042-.005.017-.013.014-.016-.005-.006-.038-.29-.04-.315-.002-.009.013-.017.01-.02-.008-.006-.04-.226-.036-.24.005-.005.02-.012.019-.015-.002-.006-.038-.212-.034-.237.004-.01.013-.018.01-.02-.009-.006-.04-.149-.026-.162.015-.005.017-.012.015-.015-.003-.007-.042-.139-.048-.144-.006-.001.017-.006.014-.011-.008-.004-.022-.045-.03-.1-.021a.306.306 0 0 1-.158-.015c-.036-.016-.075-.021-.086-.012-.012.01-.037.002-.054-.018-.043-.048-.15-.07-.155-.032 0 .017-.006.014-.01-.009-.005-.02-.044-.04-.088-.044-.044-.003-.074-.011-.067-.017.015-.013-.25-.109-.337-.122-.035-.006-.068.006-.073.022-.006.02-.013.016-.017-.009-.008-.048-.183-.073-.197-.028-.005.018-.013.017-.015 0-.007-.044-.344-.055-.358-.012-.006.02-.013.02-.016 0-.003-.019-.067-.034-.142-.034l-.315.001c-.099 0-.186.01-.194.023-.009.013-.017.01-.02-.01-.005-.038-.12-.017-.125.024 0 .016-.008.013-.01-.008-.01-.045-.189-.042-.203.003-.005.018-.013.017-.016 0-.007-.042-.278-.038-.281.003-.001.016-.01.015-.015 0-.019-.043-.246-.035-.26.009-.008.02-.014.022-.016.003-.008-.047-.185-.05-.2-.001-.008.023-.014.025-.018.003-.007-.043-.148-.034-.162.01-.005.017-.012.015-.015-.004-.007-.041-.279-.037-.282.004 0 .015-.011.011-.022-.01-.012-.022-.033-.023-.054-.002-.02.019-.036.024-.038.01-.007-.04-.186-.035-.199.007-.008.022-.014.024-.017.006-.008-.048-.224-.053-.239-.007-.008.023-.014.025-.017.004-.007-.045-.265-.048-.28-.003-.006.018-.013.019-.016 0-.008-.046-.184-.049-.2 0-.007.023-.014.024-.017.004-.007-.042-.356-.043-.361-.001-.001.016-.006.013-.01-.008-.008-.037-.137-.029-.163.011-.008.01-.015.006-.018-.01-.007-.04-.148-.028-.162.014-.005.017-.012.015-.015-.004-.007-.047-.44-.047-.456 0-.008.02-.014.023-.017.004-.007-.042-.178-.051-.183-.01-.001.017-.008.015-.011-.005-.01-.048-.443-.05-.458-.002-.008.02-.014.022-.017.003-.008-.044-.185-.05-.198-.007-.006.018-.019.02-.027.004-.02-.038-.517-.031-.53.007-.004.015-.01.011-.014-.01-.006-.037-.21-.034-.236.005-.01.012-.018.009-.02-.01-.003-.017-.044-.027-.093-.022a1.113 1.113 0 0 1-.212-.005c-.069-.007-.134.003-.145.023-.01.02-.021.023-.023.007-.006-.037-.317-.03-.322.008 0 .016-.006.013-.011-.008-.007-.035-.178-.032-.2.004-.008.01-.017.009-.023-.004-.015-.034-.364-.022-.376.013-.005.017-.011.016-.015-.004-.007-.042-.356-.042-.361 0-.001.016-.006.013-.01-.006-.007-.036-.178-.03-.202.006-.008.012-.014.007-.017-.01-.007-.046-.268-.027-.41.03a.678.678 0 0 0-.2.128c-.041.043-.077.067-.08.053-.002-.021-.094.037-.175.113-.015.014-.026.015-.025.004 0-.011-.057-.017-.128-.014a2.33 2.33 0 0 1-.215.004c-.047-.002-.079.004-.071.013.008.01-.02.007-.06-.003-.04-.01-.078-.004-.084.016-.006.018-.013.019-.016.002-.007-.04-.266-.048-.279-.01-.006.017-.017.015-.027-.003-.01-.018-.028-.02-.041-.003-.013.016-.025.017-.027.002-.006-.03-.258-.045-.26-.015-.001.01-.025.003-.053-.015-.047-.03-.082-.022-.12.024-.008.01-.017.006-.02-.01-.007-.033-.198-.042-.218-.011-.008.011-.014.007-.017-.011-.003-.017-.033-.028-.067-.026-.083.007-.261-.175-.248-.253.007-.043.035-.061.146-.095a.682.682 0 0 0 .203-.098c.133-.114.28-.32.317-.444.05-.166.081-.504.059-.646a.722.722 0 0 1-.013-.136 1.568 1.568 0 0 0-.03-.204.568.568 0 0 0-.148-.313c-.171-.206-.38-.353-.402-.284-.006.016-.016.01-.024-.011-.017-.048-.198-.048-.213 0-.006.018-.013.017-.016-.001-.007-.046-.107-.041-.122.005-.008.023-.014.023-.017 0-.008-.043-.248.01-.263.06-.006.018-.014.02-.016.002-.007-.042-.149-.04-.162.003-.006.02-.013.02-.016.003-.008-.044-.344-.056-.358-.012-.006.019-.013.02-.016.002-.007-.042-.296-.061-.301-.02-.002.018-.008.017-.011-.001-.01-.047-.147-.08-.16-.038-.007.02-.014.02-.017 0-.007-.046-.246-.03-.262.018-.008.02-.013.024-.013.007.002-.042-.192-.008-.206.035-.006.019-.014.019-.016 0-.003-.018-.039-.034-.08-.035-.04 0-.067.006-.06.015.01.01-.026.01-.077-.003-.05-.01-.096-.003-.102.016-.006.019-.013.018-.016-.001-.003-.02-.035-.033-.07-.029a6.217 6.217 0 0 1-.583-.006c-.03-.003-.125-.019-.21-.032-.092-.016-.163-.01-.174.012-.011.02-.022.022-.025.007-.01-.069-.137-.003-.227.115-.302.404-.296 1.233.012 1.754.05.084.1.148.118.147.016-.002.04.009.05.022.033.038.27.076.28.045.006-.015.022-.013.038.006.015.018.038.025.05.014.012-.01.088-.01.17-.001.081.01.152.007.156-.008.005-.014.015-.007.022.014.008.022.042.043.075.045.056.004.061.015.062.116.002.134-.082.22-.232.238a.324.324 0 0 0-.146.052c-.126.108-.28.536-.297.83-.01.17.032.378.078.393.018.005.017.012 0 .015-.03.006-.009.118.039.203.01.019.031.073.047.12s.05.103.078.125c.028.022.042.047.032.055-.01.01.015.054.055.101.044.052.078.074.083.055.005-.017.017-.013.025.01s.045.038.084.034c.038-.002.069.003.068.014-.001.012.044.021.1.021.102 0 .233.046.313.11.023.02.054.034.068.033.014 0 .044.015.068.035.076.066.262.16.282.143.011-.01.022-.002.025.017.007.04.283.055.295.016.005-.014.016-.017.024-.008.018.022.237-.075.464-.205.173-.1.32-.162.38-.162.141.002.273-.015.285-.034.01-.012.016-.01.019.009.003.017.054.026.115.02a.54.54 0 0 1 .15.002.078.078 0 0 0 .066-.008c.014-.012.054-.013.09-.001.034.011.068.004.074-.015.008-.02.014-.02.017 0 .007.042.148.033.162-.01.005-.017.012-.016.015.004.002.018.046.028.096.022a.51.51 0 0 1 .152.003c.035.01.073-.002.084-.022.01-.021.022-.025.025-.01.002.016.066.028.14.028.075 0 .181 0 .235.003.055.003.108-.003.119-.012.011-.01.047-.01.081.003.035.01.072.012.082.004a.418.418 0 0 1 .151-.011c.073.003.187.005.253.002l.196-.004.23-.004c.084-.001.191 0 .237.007.047.006.098 0 .116-.016.017-.015.03-.017.03-.007-.002.03.337.074.65.083.301.01.513-.004.515-.032 0-.015.01-.014.016.002.007.017.105.03.215.03s.268 0 .351.003a3.3 3.3 0 0 0 .268-.003c.064-.005.158-.008.21-.008.05 0 .097-.013.103-.03.005-.016.011-.015.014.004.006.037.294.04.317.003.009-.011.016-.009.019.01.003.016.063.027.134.023.071-.005.166-.006.21-.004.087.004.244 0 .394-.008.05-.003.14-.002.197.005.057.007.105.005.106-.003 0-.008.071-.012.157-.01.086.004.161-.008.167-.024.005-.017.012-.015.015.005.003.019.072.032.154.029.081-.004.189-.002.239 0 .052.004.097-.008.104-.03.008-.02.013-.023.013-.007-.001.032.122.06.151.035a.546.546 0 0 1 .166-.005c.083.005.21.007.285.003.074-.002.171-.004.216 0 .046.002.155.001.243-.001.088-.004.213-.003.277-.001.064.002.176.003.25 0 .072-.002.188-.003.257 0 .158.003.333.004.551.002.095 0 .202.001.238.007.036.005.073.002.081-.005.008-.008.057-.012.108-.01l.247.01c.09.004.161-.01.168-.03.006-.02.013-.021.017-.002.004.026.244.057.271.034.004-.003.116 0 .249.007.132.007.244.001.248-.012.005-.012.024-.014.043-.003.04.022.43-.015.463-.043.012-.01.03-.01.038 0 .01.012.044.01.078-.005.033-.015.07-.023.084-.02.014.005.181-.04.372-.099.374-.116.547-.153.61-.132.023.008.051.003.063-.007.013-.01.062-.012.11-.003.047.01.094.009.104.002a.419.419 0 0 1 .148-.008c.071.004.173.004.225 0 .052-.007.157-.007.233-.004.334.012.447.012.563.006.068-.005.166-.006.219-.004.133.004.151.004 1.054 0l.451-.001c.097 0 .246 0 .331.003a.75.75 0 0 0 .17-.007.756.756 0 0 1 .165-.004c.278.012.36.012.37.004a.601.601 0 0 1 .131-.003c.256.014.615.016.67.005a.377.377 0 0 1 .14.006c.046.009.083.008.084 0 0-.01.049-.014.106-.011.058.003.201.006.319.006.117 0 .268.002.335.006.067.003.162.004.212 0 .11-.004.492-.003.577.003.034.002.133 0 .219-.004a3.58 3.58 0 0 1 .22-.007c.069.002.193 0 .448 0h.276c.058.003.15 0 .205-.003a3.65 3.65 0 0 1 .235 0c.116.005.382.008.639.005.042 0 .137 0 .211.002.207.005.373.005.564 0 .096 0 .244 0 .328.002.084.003.16 0 .166-.005.007-.007.105-.007.216-.002.11.005.206-.005.21-.022.006-.017.013-.016.016.003.003.018.136.028.297.024.161-.005.336-.009.39-.008.053.001.147-.001.21-.005.061-.004.156-.005.21-.004.055.002.16.003.232.004.073.002.202 0 .287-.001.084-.001.191-.003.237-.002.09.001.255 0 .493-.001h.235c.045.001.155.002.244 0 .088 0 .236 0 .328.003a.81.81 0 0 0 .215-.016c.026-.012.055-.011.064 0 .009.01.158.017.332.015.174-.002.344-.003.378-.002l.213-.001c.083-.001.19-.002.236 0 .046.001.153.001.237-.001l.196-.003.26-.002c.118-.002.244-.001.278-.001.19.006.603.009.836.007h.154l.263-.005c.25-.007.329-.008.438-.006.045.001.16.002.255 0 .095 0 .237.002.316.005.08.003.194.004.257 0 .062-.005.151-.006.198-.006.047 0 .117-.003.154-.004.084-.005.398-.006.525 0 .051.001.18.002.285.001.106 0 .246.001.312.003.383.01.478.012.635.01.095 0 .185-.006.199-.01a.601.601 0 0 1 .128-.006c.256.011.333.012.398.003.039-.005.074-.004.078.003a.368.368 0 0 0 .088.035c.087.025.157.127.101.147-.018.007-.05.077-.072.157-.02.08-.07.262-.109.404-.039.143-.1.429-.135.636-.035.207-.09.497-.12.645-.049.229-.082.409-.149.81-.006.04-.039.215-.072.391-.033.176-.083.463-.11.638-.029.175-.07.407-.09.516-.21 1.061-.21 1.26.001 1.51.068.08.12.12.147.116.023-.003.047.001.052.01.034.051.068.075.113.079a.29.29 0 0 1 .099.03c.027.015.052.011.058-.01.008-.023.014-.023.018 0 .002.02.062.04.137.043l.321.018c.105.006.192-.002.193-.018.001-.017.008-.017.015 0 .017.039.247.06.259.024.005-.017.011-.016.014 0 .006.035.588.082.61.05.007-.012.015-.011.018.004.002.015.071.026.154.025.082-.001.177 0 .211.006s.066-.005.071-.02c.006-.018.012-.018.015 0 .006.035.627.085.648.052.008-.012.017-.01.019.005.005.032.276.05.295.018.008-.011.016-.008.019.01.005.033.136.018.16-.017.007-.011.015-.006.017.009.005.032.238.044.258.013.007-.012.014-.007.017.009.002.016.063.026.134.021a.725.725 0 0 1 .19.007c.034.009.065.002.07-.014.005-.016.016-.01.025.015.009.024.025.036.036.026.011-.01.196-.004.412.012.215.017.403.02.416.01.013-.012.03-.013.039-.004.02.024.443.067.466.047.01-.009.047-.008.082.004s.069.004.075-.015c.006-.019.013-.02.016-.003.004.026.418.066.712.069a8.41 8.41 0 0 0 .492.03c.303.01.822.042 2.002.12.25.017.453.029.45.024-.003-.004.224.006.505.023 1.195.072 1.745.09 1.766.06.009-.013.018-.012.02.004.005.033.336.052.338.02.001-.013.012-.013.023 0 .011.014.074.03.14.035.064.006.115.007.112.002-.004-.004.281.014.634.041.352.028.646.044.653.039a.763.763 0 0 1 .181.009c.093.011.173.005.179-.013.006-.017.013-.017.015 0 .003.02.04.03.08.025.042-.006.243.003.447.022.204.017.375.02.38.006.004-.014.013-.015.02 0 .01.022.558.077.58.059.008-.005.18 0 .696.032.086.005.158-.005.16-.023.002-.017.007-.017.01.001.004.02.113.039.243.044.13.006.484.027.788.046.326.02.557.022.564 0 .007-.02.014-.02.017 0 .003.02.067.037.142.04.076.003.175.01.22.014.045.006.087-.004.092-.021.006-.017.013-.017.015 0 .006.04.454.07.459.03.002-.016.007-.013.01.008.004.02.077.037.164.038.086.001.318.01.516.02s.368.01.378.001c.01-.009.021-.003.024.013.002.015.038.024.078.02.041-.007.262.004.491.022.23.018.421.03.427.022.006-.004.175.003.377.017 1.211.082 2.017.114 2.04.082.01-.014.02-.014.022.002.002.015.19.038.417.051l.976.058c.31.018.7.04.864.047.654.03 1.984.107 2.971.173.488.033.833.041.84.02.007-.019.012-.02.012-.001-.001.029.239.069.267.044.007-.007.271.008.587.03.331.023.578.026.585.006.006-.02.013-.02.016-.001.003.018.08.033.172.032.091 0 .188 0 .214.006.027.002.098.01.158.011.06.003.173.012.251.021.077.01.146.002.153-.018.007-.018.012-.02.011-.002 0 .017.065.034.145.037.08.004.255.012.388.02.133.006.248.002.256-.01.008-.012.016-.01.019.008.002.017.054.03.114.03.06 0 .116.007.125.018.01.01.062.024.117.03.054.008.093.018.086.024-.007.007.021.015.062.02.04.006.088-.004.106-.017.038-.034.24-.039.6-.016.284.018.618.033 1.064.048.143.006.356.013.472.02.21.013.38-.01.436-.058.016-.014.106-.021.2-.017l.383.02c.117.005.217.006.222 0a3.06 3.06 0 0 1 .301.007c.867.05.996.054 1.006.022.006-.02.013-.02.016-.001.002.018.072.035.155.038a.542.542 0 0 0 .144-.002c-.007-.009.381.01 1.072.055.245.016.537.03.648.031.111.001.278.008.37.012.093.005.175 0 .183-.011.008-.012.02-.01.026.002.018.038.458.051.47.013.006-.018.012-.019.015-.002.004.027.282.063.31.04a3.17 3.17 0 0 1 .324.015c.172.013.324.016.337.004.013-.011.036-.006.05.012.016.017.036.025.045.017a1.91 1.91 0 0 1 .346.006c.519.033.546.017.56-.297.017-.41.017-.572-.002-.557-.01.009-.01-.01 0-.039.01-.03.003-.058-.016-.065-.019-.006-.02-.013-.003-.015s.03-.062.03-.131c0-.233.008-.39.024-.4.008-.004.022-.047.029-.096.007-.048.019-.08.025-.073.007.01.015-.006.017-.032a.135.135 0 0 1 .041-.08c.021-.018.032-.04.025-.048-.007-.008.018-.041.057-.072a.243.243 0 0 0 .08-.106c.009-.038.012-.04.018-.01.005.03.02.023.056-.024.112-.143.396-.196.648-.12.05.014.093.01.1-.009.005-.02.013-.02.016 0 .006.039.328.045.354.006.009-.013.017-.011.02.003.005.033.549.073.569.042.008-.013.017-.008.02.01.005.036.192.103.195.07 0-.013.012 0 .026.026a.113.113 0 0 0 .085.055c.033.002.059.014.058.026-.001.011.025.031.058.044.051.02.295.236.35.31.138.187.297.538.304.672l.022.352c.01.145.022.437.026.648.004.215.022.388.042.394.02.006.02.014 0 .017-.021.003-.03.219-.021.515.008.28.013.692.012.914 0 .223.002.491.008.597.02.344.032.936.027 1.24-.012.684.024 1.032.12 1.142.079.093.253.204.264.17.006-.019.012-.017.016.003.006.038.13.105.21.114a.128.128 0 0 1 .077.035c.014.016.035.022.047.012.011-.01.036 0 .055.022.04.046.129.051.134.007.002-.017.007-.013.012.01.009.047.137.085.142.042.002-.017.007-.015.01.001.008.044.34.113.366.077.012-.015.023-.012.027.009.003.02.042.04.088.044.195.02.376.048.39.064.008.009.029.004.047-.012.018-.015.035-.015.037.001.006.039.178.043.183.005.002-.017.007-.017.01.001.006.03.676.098.705.072a.777.777 0 0 1 .19.005c.109.01.183 0 .19-.022.008-.022.014-.023.018-.002.006.04.148.035.161-.006.005-.014.013-.016.02-.002.011.026.416.015.618-.018.063-.01.117-.032.12-.048.001-.017.006-.015.01.005.004.019.044.025.089.015.045-.011.136-.028.202-.037a.711.711 0 0 0 .152-.035c.018-.01.136-.047.261-.082.57-.157.628-.21.776-.708.031-.104.107-.28.169-.39.1-.179.138-.223.355-.408.297-.251.525-.365.958-.474.295-.075.887-.16 1.064-.154.052.002.101-.003.11-.01a.469.469 0 0 1 .146-.011c.071 0 .126-.003.12-.01a1.482 1.482 0 0 1 .243 0c.138.006.258 0 .266-.012.008-.013.018-.007.02.01.003.02.055.042.115.052.06.011.118.028.128.04.01.01.022.003.029-.017.007-.02.013-.022.016-.002.003.02.03.037.06.04.03.001.096.02.147.041.05.02.102.03.113.02.011-.01.032-.006.046.012.013.016.05.029.08.028.03.001.097.018.148.042.052.023.099.029.104.014.005-.016.013-.02.019-.007.017.037.145.073.155.043.005-.016.015-.013.022.008.007.02.067.043.133.051a.541.541 0 0 1 .17.046c.028.018.058.025.067.018.01-.01.05.002.092.021a.56.56 0 0 0 .132.043c.031.002.094.012.14.017.046.006.09.018.098.027a.18.18 0 0 0 .074.025.83.83 0 0 1 .15.046c.049.02.096.029.106.02.009-.008.049.001.088.019.039.018.075.02.08.003.005-.017.016-.014.024.006.007.02.046.042.087.048.04.005.168.035.284.066.115.031.22.053.233.049.013-.003.034.005.046.019.013.014.057.027.098.029.041.002.083.011.092.021.03.035.181.054.185.023.002-.016.007-.012.011.01.004.024.052.044.116.048.06.004.11.016.113.023.006.019.333.104.447.116.049.005.084.014.079.02-.01.008.342.094.397.098a.87.87 0 0 1 .11.033c.05.018.1.02.11.006.01-.014.02-.011.023.004.003.017.117.062.255.1.382.103.386.105.52.15.068.023.128.028.134.011.005-.017.012-.017.015 0 .006.04.408.146.411.109.001-.016.008-.017.014-.002.02.042.204.104.214.072.005-.016.016-.011.024.011s.043.039.077.036a.524.524 0 0 1 .167.035c.179.066.352.1.356.07.002-.017.007-.013.01.01.005.02.044.04.088.044.044.003.08.01.08.015 0 .009.176.065.21.067.011.001.047.01.08.022.034.012.07.01.08-.006.012-.014.023-.013.025.004.006.042.29.127.295.09.002-.017.007-.013.01.01.005.022.053.042.116.047.06.005.106.01.103.014-.003.003.014.016.04.03.025.013.05.008.058-.011.007-.02.011-.021.011-.004 0 .033.164.098.19.075.01-.009.026-.004.036.01.03.035.32.089.323.06 0-.016.009-.01.017.014.008.024.048.047.089.053.04.006.114.024.164.042.049.017.097.02.106.009.009-.013.023-.004.03.017.009.022.045.035.082.03.038-.007.078 0 .09.016.013.015.059.03.102.033.043.003.073.011.066.016-.011.01.149.056.246.072.13.02.152.026.167.044.009.01.06.024.113.03.054.006.097.018.096.027 0 .008.044.021.1.028a.416.416 0 0 1 .11.022.945.945 0 0 0 .248.063c.04.005.066.013.06.019a.453.453 0 0 0 .141.047l.298.075c.079.02.146.023.148.006.002-.017.007-.015.01.004.009.044.217.094.222.053.002-.016.007-.015.01.004.009.044.217.094.222.053.002-.016.007-.013.011.01.01.05.397.15.413.106.007-.018.011-.019.011-.002 0 .033.164.098.19.076.01-.01.028-.002.042.015.014.016.078.035.142.042.063.007.115.02.114.028 0 .008.041.02.093.027a.341.341 0 0 1 .124.036.143.143 0 0 0 .076.024c.024 0 .077.015.118.035.042.02.086.028.097.018.012-.01.033-.007.046.01.013.015.056.031.096.036.04.005.117.023.17.042.055.018.101.024.105.014.004-.011.016-.01.029.005.03.036.191.08.215.059.011-.01.022-.004.025.01.002.015.04.032.083.036.044.005.087.017.095.027.008.01.048.023.088.028.04.006.107.023.15.041.044.018.084.018.09.001.005-.017.012-.016.014 0 .007.043.242.106.254.069.005-.017.015-.012.022.009.007.02.047.041.087.046.04.005.144.03.231.057.087.026.178.05.202.055a.12.12 0 0 1 .06.026c.009.01.06.024.113.03.054.006.097.018.096.027 0 .008.044.021.1.027a.563.563 0 0 1 .11.02c.027.025.325.106.34.093.01-.009.03-.003.042.013.013.015.06.032.105.037a.27.27 0 0 1 .09.02c.02.023.31.086.326.07.01-.008.02-.002.023.014.004.024.108.053.331.092.033.006.059.018.058.026 0 .008.061.024.137.033.075.01.134.02.129.024-.012.01.319.097.4.106.207.02.265.02.289 0 .014-.013.033-.017.04-.008a.791.791 0 0 0 .18.038c.22.03.216.03.374.084.075.026.174.052.22.057a.276.276 0 0 1 .092.02c.025.03.274.073.276.05.001-.016.01-.006.02.02.01.028.026.04.04.029a.03.03 0 0 1 .042.003c.032.037.242.085.245.055 0-.015.009-.01.016.013.008.023.057.046.11.052.05.006.099.015.105.02.057.04.105.052.112.03.005-.016.015-.01.022.01.007.022.06.044.116.05.056.008.11.018.118.025.041.03.143.069.155.059.007-.007.054.011.103.04.05.027.098.044.108.035.01-.009.044.003.076.027.032.023.068.033.08.023.012-.01.024-.006.026.009.002.015.041.031.086.036.045.005.076.014.07.02-.012.009.136.061.18.064.012 0 .083.026.159.056.076.03.147.048.158.039.01-.01.019-.004.018.009-.003.04.108.071.12.034.006-.02.013-.021.016-.003.007.042.405.186.41.147.002-.017.008-.012.011.01.004.024.035.046.069.052.033.006.1.03.146.055.048.025.093.04.1.033.009-.008.056.01.105.04.054.03.095.037.102.017.006-.02.012-.02.016 0 .006.038.23.14.29.134.02-.002.029.003.02.011-.023.021.21.113.235.093.01-.01.025-.002.032.019.007.02.046.04.087.046a.27.27 0 0 1 .103.032c.055.043.228.068.334.05.14-.025.2-.081.214-.2zm-36.716-10.356c-.03-.005-.064.01-.077.032-.012.022-.02.028-.02.011.003-.04-.17-.054-.184-.013-.007.018-.011.02-.01.002 0-.042-.092-.055-.105-.015-.006.018-.013.017-.016-.001-.007-.042-.277-.036-.283.006-.002.016-.007.014-.01-.005-.01-.045-.108-.046-.122 0-.006.017-.015.022-.02.01-.005-.013-.054-.032-.109-.043-.054-.011-.093-.013-.086-.005.007.01-.037.007-.098-.004-.06-.01-.115-.002-.12.015-.007.018-.013.019-.016.002-.006-.038-.14-.042-.145-.004-.002.015-.007.013-.01-.007-.007-.038-.22-.033-.244.005-.01.014-.015.012-.013-.005.003-.04-.13-.054-.143-.015-.005.017-.012.016-.015-.004-.006-.037-.197-.033-.206.004-.003.011-.006.01-.006-.001-.002-.037-.134-.044-.146-.01-.005.018-.012.017-.015 0-.003-.018-.038-.034-.08-.035-.04 0-.067.006-.059.015.008.01-.027.01-.077 0-.052-.01-.098-.004-.105.017-.007.02-.012.021-.012.003.002-.043-.13-.056-.145-.015-.007.019-.012.02-.012.002.002-.042-.091-.055-.104-.015-.006.018-.013.017-.016-.003-.003-.019-.055-.03-.115-.024a.657.657 0 0 1-.17-.004c-.034-.009-.066-.002-.071.015-.005.016-.014.02-.02.007-.014-.034-.323-.063-.333-.031-.005.014-.021.01-.037-.007-.015-.018-.037-.025-.048-.016-.012.01-.08.01-.15.002-.072-.008-.135-.002-.14.016-.006.017-.013.016-.016-.004-.002-.019-.057-.033-.12-.03a2.46 2.46 0 0 1-.195-.001c-.044-.003-.088.004-.1.012-.01.01-.048.003-.082-.012-.034-.017-.077-.014-.097.006-.02.019-.035.025-.034.013.003-.037-.17-.045-.184-.01-.006.02-.011.02-.01.003 0-.04-.131-.058-.143-.02-.005.015-.017.013-.027-.006-.01-.018-.029-.02-.041-.003-.013.017-.025.018-.028.002-.005-.034-.216-.05-.223-.017-.003.013-.006.013-.006 0-.002-.027-.149-.017-.166.012-.007.012-.015.008-.017-.005-.004-.027-.51-.07-.526-.045-.005.008-.04-.018-.078-.056-.22-.221-.075-1.043.247-1.41.099-.113.64-.43.877-.514a1.77 1.77 0 0 1 .378-.07c.123-.01.29-.026.37-.038.081-.01.156-.02.167-.018.011 0 .13-.005.263-.014.317-.02.458-.024.608-.018.278.01.469 0 .485-.025.01-.015.016-.015.015.003-.001.016.075.033.17.037.182.01.234.043.246.163.004.041.024.081.045.088.02.008.025.013.01.013-.017 0-.027.074-.024.166.009.249-.061.868-.118 1.041-.062.193-.034.25.102.206.117-.037.272-.16.264-.209-.003-.018.006-.034.02-.037.014-.002.03-.036.034-.075a.38.38 0 0 1 .033-.117c.014-.026.018-.054.009-.064-.008-.01.016-.039.056-.063.039-.025.078-.038.086-.028.008.009.037.007.065-.004.028-.013.083.003.125.032l.086.063c.09.065.203-.047.208-.208.002-.066.014-.129.026-.14.012-.01.014-.028.004-.039s-.009-.082.002-.157c.01-.075.026-.228.033-.34.007-.112.027-.216.044-.23.034-.029.293-.071.406-.066.04.002.133.001.207-.002.074-.002.163 0 .198.004.034.005.065 0 .068-.009.003-.01.053-.005.11.014.096.029.106.038.142.14a.79.79 0 0 0 .067.145c.016.02.018.04.005.041-.035.006-.02.444.017.455.018.006.018.013 0 .016-.018.003-.03.112-.026.242s.005.256.004.28v.38c.007.612-.004.667-.128.646zm-1.621-2.171c-.095-.015-.142-.068-.095-.108.042-.036.254-.029.286.01.07.08-.017.125-.191.098z" transform="matrix(.96499 0 0 .9632 -5.67 -97.742)"/><path style="fill:#ced4da;stroke-width:1.03725;" d="M128.016 144.078c0-.084.24-.152.532-.152.292 0 .532-.052.532-.115 0-.064.29-.093.645-.067.381.029 2.107-.269 4.215-.727a872.91 872.91 0 0 1 4.988-1.072c.78-.163 1.483-.336 1.562-.385.19-.118 0-2.275-.256-2.907-.124-.304-.34-.524-.575-.582-.306-.077-.492-.373-.997-1.591-.342-.823-.621-1.566-.621-1.652 0-.272-.497-.427-1.67-.522-1.067-.087-2.403-.447-3.217-.868-.388-.2-2.064-1.579-2.366-1.946-.34-.413-.233-1.465.201-1.98.423-.503.994-.703 2.42-.846 2.52-.253 2.483-.224 1.752-1.31l-.45-.669.702-.121c.446-.078.737-.065.798.033.055.089.337.116.66.064.537-.087.578-.136.804-.945l.312-1.12c.04-.146-.005-.265-.102-.265-.097 0-.212.137-.256.304-.09.343-.284.398-.4.114-.055-.138-.111-.143-.202-.02-.196.266-4.033.513-7.956.513h-3.569l-1.059 1.069-1.059 1.068-.98-.043c-.907-.04-.989-.072-1.07-.423-.086-.365-.141-.381-1.418-.424-1.148-.038-1.383-.002-1.723.266-.388.305-.556.31-10.878.31H96.831l-.697-.414c-.603-.358-.93-.428-2.443-.525a86.202 86.202 0 0 1-2.696-.213c-.916-.096-.95-.115-.95-.528v-.428l-.72.237c-.398.13-.873.383-1.057.56-.716.693-.848 2.699-.191 2.907.21.067.278.194.23.427-.282 1.376-.186 2.947.203 3.337.116.116 1.798.183 5.338.215l5.17.046 1.605.835 1.606.834 4.274.001c4.584.001 4.873.044 5.398.802.128.185.531.657.896 1.049.566.607.817.751 1.714.983.582.15 1.051.353 1.051.457 0 .317.854.84 4.784 2.933 2.089 1.112 4.353 2.32 5.033 2.683.68.364 1.38.661 1.557.661.177 0 .321.068.321.152 0 .083.17.152.38.152.209 0 .38-.069.38-.152zm-1.661-1.746c-.92-.47-1.556-1.172-2.966-3.266-.646-.961-1.422-1.952-1.723-2.203l-.549-.455-3.043-.076c-2.806-.07-3.095-.104-3.699-.426-.375-.2-.797-.59-.986-.911-.182-.31-.544-.88-.806-1.27l-.476-.708 1.538-.085a55.13 55.13 0 0 1 2.99-.07c1.387.016 1.518-.012 2.848-.603.767-.34 1.395-.554 1.395-.475 0 .078.303.143.673.143.57 0 .721.068.989.443.354.498.582 1.38.355 1.38-.08 0-.228-.274-.328-.608-.13-.433-.266-.607-.472-.607-.272 0-.277.032-.07.526.303.725.276 1.246-.096 1.848-.257.415-.274.511-.088.511.125 0 .375-.239.556-.531.357-.579.527-.656.662-.304.124.323.59.282.899-.078.298-.347.339-.606.097-.606-.09 0-.134-.085-.097-.19.037-.104-.026-.375-.14-.602-.115-.228-.198-.467-.184-.532.015-.065-.027-.241-.093-.39-.173-.399.06-.539.306-.184.116.167.298.405.405.528.117.134.195.63.195 1.242 0 .805.068 1.107.325 1.446.326.43.51.48 1 .28.381-.157 1.181.683 1.182 1.239 0 .34.118.492.57.733.343.183.678.528.845.87.213.436.41.603.849.72.595.161.927.616.923 1.265-.004.5-.148.643-1.034 1.022-.857.367-.851.353-.548 1.38.064.217-.02.23-.72.102a6.45 6.45 0 0 1-1.484-.498zm-24.424-13.86a807.45 807.45 0 0 1 10.555 0c2.903.023.528.042-5.278.042-5.805 0-8.18-.02-5.277-.042zm-11.733-.809c0-.09.102-.265.227-.39.237-.237.295-.102.136.313-.104.27-.363.326-.363.077zm31.627-.097c.228-.035.638-.036.91-.001.274.033.087.062-.414.063-.501 0-.725-.027-.496-.062zm-25.441-.143c.103-.042.308-.044.456-.006.147.038.063.072-.187.075-.251.002-.372-.028-.27-.07z" transform="matrix(.96499 0 0 .9632 -5.67 -97.742)"/></g></svg>
