<svg width="46" height="46" viewBox="0 0 12.171 12.171" xmlns="http://www.w3.org/2000/svg"><path style="fill:#000;stroke-width:1" d="M-80.695 137.658a1.707 1.707 0 0 1-.878-.488 1.712 1.712 0 0 1-.522-1.356c.024-.378.144-.707.361-.983.059-.074.803-.831 1.654-1.682l1.548-1.547-.72-.718c-2.18-2.17-2.437-2.432-2.55-2.604-.622-.955-.215-2.21.858-2.637a1.795 1.795 0 0 1 1.709.235c.073.057.824.796 1.669 1.643.845.846 1.543 1.54 1.552 1.54.01 0 .684-.672 1.5-1.493a91.467 91.467 0 0 1 1.648-1.631c.199-.17.525-.33.786-.386.142-.03.258-.037.457-.028.467.02.838.185 1.17.516.375.375.554.84.522 1.357a1.725 1.725 0 0 1-.36.983c-.06.074-.804.831-1.655 1.682l-1.548 1.547.721.718c2.18 2.17 2.436 2.432 2.548 2.604.624.955.216 2.21-.857 2.637-.553.221-1.24.126-1.709-.235-.073-.057-.824-.796-1.669-1.642-.845-.847-1.543-1.54-1.552-1.54-.009 0-.684.671-1.5 1.492a91.467 91.467 0 0 1-1.648 1.631 2.015 2.015 0 0 1-.77.382 2.212 2.212 0 0 1-.765.002z" transform="translate(82.098 -125.52)"/></svg>