<svg width="32" height="32" viewBox="0 0 8.467 8.467" xmlns="http://www.w3.org/2000/svg"><path style="fill:#fff;stroke-width:1.5875;stop-color:#000" d="M112 42.333c-.825 0-1.5.669-1.5 1.486 0 .438.194.834.501 1.106h-1.051c-.655 0-1.017.545-1.183 1.175l-1.013 3.86c-.165.63.19.84.845.84h6.696c.655 0 1.01-.21.845-.84l-1.014-3.86c-.165-.63-.527-1.175-1.182-1.175h-.947c.307-.272.5-.668.5-1.106 0-.817-.674-1.486-1.498-1.486zm0 .553a.933.933 0 1 1 0 1.866.933.933 0 1 1 0-1.866z" transform="translate(-107.714 -42.333)"/></svg>
