<svg width="46" height="46" viewBox="0 0 12.171 12.171" xmlns="http://www.w3.org/2000/svg"><path style="fill:#000;stroke-width:1" d="M25.87 41.532c-.074-.03-.132-.102-.342-.429-.305-.474-.323-.5-.4-.558-.126-.096-.186-.104-.729-.104-.518 0-.562.005-.674.08-.065.044-.119.117-.514.7-.137.202-.155.222-.237.26a.272.272 0 0 1-.158.033 7.35 7.35 0 0 1-.648-.257 74.417 74.417 0 0 0-.72-.304c-.165-.068-.255-.147-.284-.25-.022-.082-.021-.086.117-.728l.088-.407-.037-.123-.037-.123-.367-.37c-.406-.41-.46-.45-.624-.45-.05 0-.285.038-.522.086a5.715 5.715 0 0 1-.514.086.306.306 0 0 1-.267-.147c-.02-.037-.164-.385-.32-.774-.31-.777-.317-.804-.244-.933.04-.071.09-.108.591-.426.16-.101.31-.202.334-.224a.582.582 0 0 0 .09-.134l.048-.094.006-.518c.006-.593 0-.63-.119-.757a4.549 4.549 0 0 0-.441-.323 6.875 6.875 0 0 1-.424-.3.335.335 0 0 1-.09-.23c0-.066.617-1.516.669-1.573a.341.341 0 0 1 .22-.102c.035 0 .272.046.527.101.53.116.61.12.747.04.118-.069.76-.707.805-.8.063-.131.06-.22-.033-.692a74.024 74.024 0 0 1-.094-.49.308.308 0 0 1 .088-.26c.054-.056.145-.097.778-.35.394-.157.743-.293.775-.302a.322.322 0 0 1 .283.09c.026.03.104.142.172.25.37.58.417.644.513.697l.092.05.514.015c.452.013.526.011.606-.012.111-.032.207-.099.266-.186.534-.787.542-.798.615-.834.141-.068.157-.063.957.278.753.322.809.352.854.461.036.086.029.145-.078.64-.11.513-.117.593-.051.724.048.1.732.795.82.835.124.057.204.052.706-.046.26-.051.495-.093.522-.093a.37.37 0 0 1 .226.11c.04.044.61 1.435.635 1.551.015.07-.022.188-.08.25a4.61 4.61 0 0 1-.44.303 5.477 5.477 0 0 0-.445.303.554.554 0 0 0-.094.141c-.036.08-.039.113-.049.59-.015.708-.02.694.39.972.702.474.67.444.67.625-.001.116-.006.13-.311.837-.17.396-.327.738-.348.76a.386.386 0 0 1-.21.103c-.022 0-.268-.049-.545-.109-.543-.117-.557-.118-.707-.05-.114.052-.79.71-.838.817-.062.135-.058.194.041.706.051.262.093.5.092.53a.332.332 0 0 1-.117.23c-.031.023-.385.174-.787.334-.755.303-.807.318-.918.274zm-.91-1.673a4.446 4.446 0 0 0 2.614-1.237 4.384 4.384 0 0 0 1.323-3.285 4.432 4.432 0 0 0-.917-2.572 5.713 5.713 0 0 0-.796-.797 4.659 4.659 0 0 0-1.19-.655 4.427 4.427 0 0 0-5.862 3.361 4.89 4.89 0 0 0-.045 1.276c.146 1.101.577 1.968 1.353 2.72a4.442 4.442 0 0 0 2.74 1.208c.215.014.543.007.78-.019zm-.945-.404a3.829 3.829 0 0 1-1.284-.381 3.893 3.893 0 0 1-1.442-1.176 4.025 4.025 0 0 1-.144-4.662 4.022 4.022 0 0 1 5.09-1.381 3.944 3.944 0 0 1 1.832 1.82c.288.569.422 1.14.423 1.795a3.833 3.833 0 0 1-.408 1.764 4.018 4.018 0 0 1-3.213 2.228c-.234.023-.633.02-.854-.007zm.77-1.84c.929-.14 1.621-.797 1.833-1.74a2.4 2.4 0 0 0 .022-.414c0-.287-.004-.33-.046-.496-.161-.643-.543-1.122-1.159-1.452a2.645 2.645 0 0 0-.45-.158 2.352 2.352 0 0 0-.886-.024c-.898.172-1.559.823-1.752 1.724-.044.207-.04.629.008.854a2.176 2.176 0 0 0 2.43 1.706z" transform="translate(-18.399 -29.38)"/></svg>